<svg xmlns="http://www.w3.org/2000/svg" width="25.646" height="27.356" viewBox="0 0 25.646 27.356">
  <path id="calendar" d="M8.549,10.258h3.419v3.419H8.549Zm5.129,0H17.1v3.419H13.678Zm5.129,0h3.419v3.419H18.807ZM3.419,20.517H6.839v3.419H3.419Zm5.129,0h3.419v3.419H8.549Zm5.129,0H17.1v3.419H13.678ZM8.549,15.388h3.419v3.419H8.549Zm5.129,0H17.1v3.419H13.678Zm5.129,0h3.419v3.419H18.807Zm-15.388,0H6.839v3.419H3.419ZM22.227,0V1.71H18.807V0H6.839V1.71H3.419V0H0V27.356H25.646V0Zm1.71,25.646H1.71V6.839H23.936Z" fill="#1f5559"/>
</svg>
