<svg xmlns="http://www.w3.org/2000/svg" width="35.866" height="44.33" viewBox="0 0 35.866 44.33">
  <g id="Group_88" data-name="Group 88" transform="translate(-39.271 -568.73)">
    <g id="nurse" transform="translate(39.271 568.73)">
      <path id="Path_28" data-name="Path 28" d="M218.44,36.772h1.126a1.529,1.529,0,0,0,1.526-1.481,1.529,1.529,0,0,0,1.481-1.526V32.639a1.529,1.529,0,0,0-1.481-1.526,1.529,1.529,0,0,0-1.526-1.481H218.44a1.529,1.529,0,0,0-1.526,1.481,1.529,1.529,0,0,0-1.481,1.526v1.126a1.529,1.529,0,0,0,1.481,1.526A1.529,1.529,0,0,0,218.44,36.772Zm-1.7-3.008V32.639a.224.224,0,0,1,.224-.224h.559a.7.7,0,0,0,.7-.7v-.559a.224.224,0,0,1,.224-.224h1.126a.224.224,0,0,1,.223.224v.559a.7.7,0,0,0,.7.7h.559a.224.224,0,0,1,.224.224v1.126a.224.224,0,0,1-.224.224h-.559a.7.7,0,0,0-.7.7v.559a.224.224,0,0,1-.223.224H218.44a.224.224,0,0,1-.224-.224v-.559a.7.7,0,0,0-.7-.7h-.559A.224.224,0,0,1,216.736,33.765Z" transform="translate(-200.944 -27.056)" fill="#fff"/>
      <path id="Path_29" data-name="Path 29" d="M79.766,29.17l-8.122-3.046a.551.551,0,0,1-.356-.514v-2.88a8.425,8.425,0,0,0,3.7-5.978,3.01,3.01,0,0,0,.063-6V4.614A3.4,3.4,0,0,0,73.43,1.732L71.845.765A5.224,5.224,0,0,0,69.123,0H64.142a5.224,5.224,0,0,0-2.722.765l-1.585.967a3.4,3.4,0,0,0-1.618,2.882v6.137a3.01,3.01,0,0,0,.064,6.01,8.425,8.425,0,0,0,3.7,5.971v2.88a.551.551,0,0,1-.356.514L53.5,29.17A7.432,7.432,0,0,0,48.7,36.1V40.1a.652.652,0,0,0,1.3,0V36.1a6.122,6.122,0,0,1,3.954-5.706l2.517-.944v4.171a2.585,2.585,0,1,0,1.3,0v-4.66l.373-.14a.654.654,0,0,0,.055.046l1.613,1.2a11.436,11.436,0,0,0,13.628,0l1.616-1.2a.669.669,0,0,0,.053-.044l.9.338v3.916A3.132,3.132,0,0,0,73.1,36.194v5.162a.652.652,0,0,0,.652.652h.993a.652.652,0,0,0,0-1.3H74.4v-4.51a1.827,1.827,0,0,1,1.825-1.825h.806a1.827,1.827,0,0,1,1.825,1.825V40.7h-.337a.652.652,0,1,0,0,1.3h.989a.652.652,0,0,0,.652-.652V36.194a3.132,3.132,0,0,0-2.843-3.115V29.646l1.987.745A6.122,6.122,0,0,1,83.262,36.1V43a.028.028,0,0,1-.028.028h-33.2A.028.028,0,0,1,50,43v-.287a.652.652,0,1,0-1.3,0V43a1.333,1.333,0,0,0,1.331,1.331h33.2A1.333,1.333,0,0,0,84.566,43V36.1A7.432,7.432,0,0,0,79.766,29.17ZM58.408,36.12a1.282,1.282,0,1,1-1.282-1.282A1.283,1.283,0,0,1,58.408,36.12ZM76.452,13.754a1.709,1.709,0,0,1-1.4,1.678V12.075A1.709,1.709,0,0,1,76.452,13.754Zm-19.736,0a1.709,1.709,0,0,1,1.5-1.693v3.387A1.709,1.709,0,0,1,56.716,13.754Zm2.805,1.971v-3.67h3.571a.652.652,0,1,0,0-1.3H59.521V4.614a2.085,2.085,0,0,1,.993-1.769L62.1,1.878A3.92,3.92,0,0,1,64.142,1.3h4.981a3.921,3.921,0,0,1,2.043.574l1.585.967a2.085,2.085,0,0,1,.993,1.769v6.137H65.7a.652.652,0,0,0,0,1.3h8.045v3.67a7.112,7.112,0,0,1-14.223,0ZM72.67,29.015a10.133,10.133,0,0,1-12.074,0l-1-.739,2.481-.93a1.861,1.861,0,0,0,1.2-1.734V23.443a8.405,8.405,0,0,0,6.7,0v2.168a1.861,1.861,0,0,0,1.2,1.734l2.481.93Z" transform="translate(-48.7 0)" fill="#fff"/>
    </g>
  </g>
</svg>
