<svg xmlns="http://www.w3.org/2000/svg" xmlns:xlink="http://www.w3.org/1999/xlink"
                    viewBox="0 0 594.354 607.357">
                    <defs>
                        <linearGradient id="linear-gradient" x1="0.89" y1="0.536" x2="0.5" y2="1"
                            gradientUnits="objectBoundingBox">
                            <stop offset="0" stop-color="#0ad4df" stop-opacity="0.569" />
                            <stop offset="1" stop-color="#1f7378" />
                        </linearGradient>
                        <linearGradient id="linear-gradient-2" x1="0.5" y1="-0.136" x2="0.5" y2="641.906"
                            gradientUnits="objectBoundingBox">
                            <stop offset="0" stop-color="#fff" />
                            <stop offset="1" stop-color="#c3996b" />
                        </linearGradient>
                        <linearGradient id="linear-gradient-3" x1="0.5" y1="-0.073" x2="0.5" y2="1"
                            xlink:href="#linear-gradient-2" />
                        <linearGradient id="linear-gradient-4" x1="0.498" y1="-274.866" x2="0.498" y2="392.19"
                            xlink:href="#linear-gradient-2" />
                        <linearGradient id="linear-gradient-5" x1="0.5" y1="-1.443" x2="0.5" y2="396.279"
                            xlink:href="#linear-gradient-2" />
                        <linearGradient id="linear-gradient-6" x1="0.501" y1="-10.861" x2="0.501" y2="74.053"
                            xlink:href="#linear-gradient-2" />
                    </defs>
                    <g id="Group_666" data-name="Group 666" transform="translate(-992 -3938.643)">
                        <circle id="Ellipse_138" data-name="Ellipse 138" cx="293.5" cy="293.5" r="293.5"
                            transform="translate(999.354 3959)" fill="url(#linear-gradient)" />
                        <g id="Group_590" data-name="Group 590" transform="translate(-293.646 1871)">
                            <g id="Group_524" data-name="Group 524" transform="translate(1285.646 2067.643)">
                                <g id="Group_130" data-name="Group 130">
                                    <path id="Path_248" data-name="Path 248"
                                        d="M506.446,529.9c-.233,7.1-.3,16.728-.265,27.225.124,32.815,1.248,74.219,1.248,74.219-.078.158-.164.315-.259.471-7.154,11.582-68.879,12.746-75.4.229a4.913,4.913,0,0,1-.305-.7s1.877-60.153,2.124-89.959c.052-5.911.032-10.638-.072-13.452-.389-10.456-2.826-36.754-3.606-52.412-.16-3.406-.252-6.308-.225-8.434.053-3.908,1.578-7.331,3.82-8.579l24.477-13.593,24.72.483,22.235,7.487c2.362.8,4.16,3.98,4.44,7.928.162,2.158.134,5.886-.017,10.59C508.845,487.263,506.959,514.244,506.446,529.9Z"
                                        transform="translate(-242.513 -324.47)" fill="#77bad7" />
                                    <path id="Path_249" data-name="Path 249"
                                        d="M486.2,451.214H476.95l-10.39-.011-16.621-.01h-9.7l.9-3.4,1.027-3.921a1.6,1.6,0,0,1,.021-.635v-.021c.231-1.029,1.511-2.893,7.833-3.045q.753-.011,1.61,0c2.2.044,4.843-.088,7.651-.248,1.733-.111,3.528-.235,5.333-.324,3.1-.181,6.2-.294,9.008-.181.59.032,1.16.061,1.727.111.828.059,1.609.151,2.357.273h.012a14.151,14.151,0,0,1,3.457.945,4.868,4.868,0,0,1,3.1,3.16l1.351,5.146Z"
                                        transform="translate(-232.921 -329.51)" fill="#2e707f" />
                                    <path id="Path_250" data-name="Path 250"
                                        d="M491.226,454.577l-63.388,95.191-87.73-18.647,12.548,35.605,73.582,30.187,72.795-64.782Z"
                                        transform="translate(-323.853 -315.698)" fill="#1f7378" />
                                    <g id="Group_102" data-name="Group 102" transform="translate(0 137.139)">
                                        <path id="Path_251" data-name="Path 251"
                                            d="M467.526,593.359l-92.154,25.973a6.161,6.161,0,0,1-7.581-4.245L331.818,487.448a6.162,6.162,0,0,1,4.247-7.581l92.152-25.973a6.166,6.166,0,0,1,7.583,4.247l35.975,127.637A6.164,6.164,0,0,1,467.526,593.359Z"
                                            transform="translate(-331.589 -453.665)" fill="#231f20" />
                                        <rect id="Rectangle_49" data-name="Rectangle 49" width="93.409" height="123.565"
                                            transform="translate(8.444 35.76) rotate(-15.742)" fill="#f5f5f5" />
                                        <path id="Path_1112" data-name="Path 1112" d="M0,0H46.763V123.564H0Z"
                                            transform="translate(53.343 23.102) rotate(-15.738)" fill="#f5f5f5" />
                                    </g>
                                    <path id="Path_258" data-name="Path 258"
                                        d="M439.893,447.056l.011-.006a1.136,1.136,0,0,0,.351-.057c.042-.006.078-.013.12-.021l-.013-.021c-.582.094-1.149.214-1.725.317C439.055,447.191,439.475,447.121,439.893,447.056Z"
                                        transform="translate(-234.378 -322.623)" fill="#5e9e99" />
                                    <path id="Path_259" data-name="Path 259"
                                        d="M439.495,446.983c.036-.006.074-.013.111-.021-.042.008-.078.015-.12.021Z"
                                        transform="translate(-233.608 -322.613)" fill="#b3ebff" />
                                    <path id="Path_260" data-name="Path 260"
                                        d="M464.907,447.095h.019s.519-.122,1.395-.3C465.365,446.826,464.762,446.925,464.907,447.095Z"
                                        transform="translate(-210.542 -322.766)" fill="#b3ebff" />
                                    <path id="Path_261" data-name="Path 261"
                                        d="M471.977,460.309l-.267-.185c-.078.79-.153,1.591-.248,2.4C471.809,461.124,471.977,460.309,471.977,460.309Z"
                                        transform="translate(-204.57 -310.66)" fill="#adadad" />
                                    <path id="Path_262" data-name="Path 262"
                                        d="M432.939,459.573l2.168-.693a13.8,13.8,0,0,0-2.725-1.1Z"
                                        transform="translate(-240.058 -312.792)" fill="#adadad" />
                                    <path id="Path_263" data-name="Path 263"
                                        d="M454.207,384.43c1.135.031,2.477.1,3.967.221C456.68,384.529,455.342,384.461,454.207,384.43Z"
                                        transform="translate(-220.239 -379.398)" fill="#f2d4bc" />
                                    <path id="Path_264" data-name="Path 264"
                                        d="M454.207,384.43c1.135.031,2.477.1,3.967.221C456.68,384.529,455.342,384.461,454.207,384.43Z"
                                        transform="translate(-220.239 -379.398)" opacity="0.62"
                                        fill="url(#linear-gradient-2)"
                                        style="mix-blend-mode: multiply;isolation: isolate" />
                                    <path id="Path_265" data-name="Path 265"
                                        d="M452.743,384.422c.235-.008.5-.008.809-.008C453.247,384.414,452.978,384.414,452.743,384.422Z"
                                        transform="translate(-221.569 -379.413)" fill="#f2d4bc" />
                                    <path id="Path_266" data-name="Path 266"
                                        d="M452.743,384.422c.235-.008.5-.008.809-.008C453.247,384.414,452.978,384.414,452.743,384.422Z"
                                        transform="translate(-221.569 -379.413)" opacity="0.62"
                                        fill="url(#linear-gradient-3)"
                                        style="mix-blend-mode: multiply;isolation: isolate" />
                                    <path id="Path_267" data-name="Path 267"
                                        d="M475.394,415.577c-.031.132-.05.223-.05.223S475.363,415.72,475.394,415.577Z"
                                        transform="translate(-201.045 -351.114)" fill="#f2d4bc" />
                                    <path id="Path_268" data-name="Path 268"
                                        d="M475.394,415.577c-.031.132-.05.223-.05.223S475.363,415.72,475.394,415.577Z"
                                        transform="translate(-201.045 -351.114)" opacity="0.62"
                                        fill="url(#linear-gradient-4)"
                                        style="mix-blend-mode: multiply;isolation: isolate" />
                                    <path id="Path_269" data-name="Path 269"
                                        d="M461.368,482.675l.395,3.408s-8.386,3.1-10.724,5.864l.013.021c.015.036.078.157.183.363,1.33,2.57,9.56,17.6,23.92,25.467,15.734-8.615,24.12-25.851,24.12-25.851a6.5,6.5,0,0,0-.607-.6.216.216,0,0,0-.032-.027c-.225-.2-.477-.395-.74-.592-3.246-2.379-9.348-4.641-9.348-4.641l.071-.609.479-4.1.456-3.9C511.656,472.3,514,444.717,514,444.717s8.542,1.032,9.376-5.864c.668-5.484-4.017-8.615-4.017-8.615l-2.46-1.784c-.187-4.828-3.137-20.283-3.137-20.283-16.007.344-28.49-8.964-28.49-8.964l3.351,11.035c-9.311-.691-27.089-10-27.089-10l4.747,8.624c-15.994-3.1-21.323-12.414-21.323-12.414-9.329,10.344-10.331,33.789-10.331,33.789h-3.662s-4.684,3.131-4.018,8.615c.838,6.9,9.374,5.864,9.374,5.864s2.345,27.58,24.443,32.749l.3,2.57h0Z"
                                        transform="translate(-245.056 -368.483)" fill="#ebd2a1" />
                                    <path id="Path_270" data-name="Path 270"
                                        d="M460.266,385.048c-.9-.143-1.765-.26-2.606-.359.842.1,1.714.216,2.606.359Z"
                                        transform="translate(-217.104 -379.163)" fill="#f2d4bc" />
                                    <path id="Path_271" data-name="Path 271"
                                        d="M460.266,385.048c-.9-.143-1.765-.26-2.606-.359.842.1,1.714.216,2.606.359Z"
                                        transform="translate(-217.104 -379.163)" opacity="0.62"
                                        fill="url(#linear-gradient-5)"
                                        style="mix-blend-mode: multiply;isolation: isolate" />
                                    <path id="Path_272" data-name="Path 272"
                                        d="M474.131,395.791c-.2-.588-.414-1.149-.653-1.706v.006C473.711,394.646,473.934,395.207,474.131,395.791Z"
                                        transform="translate(-202.739 -370.63)" fill="#f2d4bc" />
                                    <path id="Path_273" data-name="Path 273"
                                        d="M474.131,395.791c-.2-.588-.414-1.149-.653-1.706v.006C473.711,394.646,473.934,395.207,474.131,395.791Z"
                                        transform="translate(-202.739 -370.63)" opacity="0.62"
                                        fill="url(#linear-gradient-6)"
                                        style="mix-blend-mode: multiply;isolation: isolate" />
                                    <path id="Path_274" data-name="Path 274"
                                        d="M524.176,392.87H511.3l6.547-8.964s-18.362.269-26.666-.3q-1.016-.252-2.007-.452h-.01c-.662-.139-1.317-.267-1.962-.374.107-.16-.05-.168-.4-.069h0c-.893-.149-1.765-.267-2.606-.372a.149.149,0,0,0-.059-.008c-.378-.048-.74-.09-1.1-.13-.086-.008-.178-.019-.258-.027-.357-.034-.706-.072-1.046-.1-.053-.008-.1-.008-.16-.015-1.49-.126-2.832-.2-3.967-.231-.036,0-.084,0-.122,0-.267-.012-.515-.015-.754-.019h-.1c-.368-.008-.7-.008-1-.008s-.574,0-.809.008h-.073c-.126,0-.235.008-.332.008-.059,0-.109.006-.158.01l-.21,0c-.044,0-.078,0-.113,0l-.189.01s-35.823-2.07-41.848,22.758-2.345,38.956-2.345,38.956h3.662s1-23.445,10.33-33.789c0,0,5.329,9.312,21.323,12.414l-4.747-8.625s17.778,9.311,27.089,10l-3.351-11.035s12.483,9.308,28.49,8.964c0,0,2.95,15.456,3.137,20.283l2.46,1.784s.019-.1.05-.231a.6.6,0,0,0,.013-.059.229.229,0,0,0,.011-.042c.023-.1.053-.24.082-.393.01-.059.023-.118.036-.185.034-.177.071-.376.113-.6.012-.082.027-.164.04-.252.042-.248.086-.517.132-.822.012-.088.025-.183.036-.282.044-.279.082-.582.12-.908.015-.128.032-.248.048-.382.042-.359.086-.754.12-1.151.01-.141.023-.271.036-.412.042-.448.074-.92.109-1.42.012-.162.023-.321.031-.487.034-.515.055-1.055.076-1.622.008-.177.015-.355.021-.54.015-.59.029-1.2.032-1.845v-.534c.006-.679,0-1.383-.021-2.118,0-.145-.011-.3-.011-.45q-.032-1.1-.088-2.278c-.009-.12-.017-.246-.021-.366-.05-.834-.109-1.7-.181-2.586-.013-.162-.025-.326-.04-.487-.074-.9-.172-1.832-.275-2.782-.025-.195-.046-.389-.067-.59q-.172-1.445-.387-2.967c-.032-.2-.065-.4-.093-.611-.153-1.036-.324-2.1-.519-3.2-.027-.189-.067-.38-.1-.567-.206-1.137-.424-2.294-.676-3.492-.031-.132-.059-.269-.09-.4-.267-1.277-.559-2.566-.88-3.894-.166-.672-.353-1.315-.563-1.941-.2-.6-.42-1.187-.653-1.759v0Z"
                                        transform="translate(-243.643 -381.793)" fill="#362b25" />
                                    <g id="Group_103" data-name="Group 103" transform="translate(4.344 199.338)">
                                        <path id="Path_275" data-name="Path 275"
                                            d="M362.8,490.637a3.821,3.821,0,0,1-2.843,4.581l-21.565,3.921a3.824,3.824,0,0,1-4.268-3.291l-.187-1.032a3.821,3.821,0,0,1,2.841-4.581l21.565-3.919a3.822,3.822,0,0,1,4.268,3.292Z"
                                            transform="translate(-333.865 -486.262)" fill="#ebd2a1" />
                                        <path id="Path_276" data-name="Path 276"
                                            d="M365.906,495.024a3.965,3.965,0,0,1-3.145,4.639l-23.414,4.253a3.964,3.964,0,0,1-4.574-3.232l-.187-1.032a3.963,3.963,0,0,1,3.143-4.639l23.414-4.255a3.963,3.963,0,0,1,4.576,3.236Z"
                                            transform="translate(-333.271 -482.237)" fill="#ebd2a1" />
                                        <path id="Path_277" data-name="Path 277"
                                            d="M363.05,500.1a3.748,3.748,0,0,1-2.664,4.549l-20.5,3.725a3.747,3.747,0,0,1-4.093-3.32l-.189-1.03a3.752,3.752,0,0,1,2.664-4.551l20.5-3.725a3.748,3.748,0,0,1,4.095,3.32Z"
                                            transform="translate(-332.353 -477.695)" fill="#ebd2a1" />
                                        <path id="Path_278" data-name="Path 278"
                                            d="M360.85,504.464A3.321,3.321,0,0,1,358.5,508.5l-18.119,3.293a3.321,3.321,0,0,1-3.618-2.95l-.168-.914a3.319,3.319,0,0,1,2.353-4.034l18.117-3.3a3.324,3.324,0,0,1,3.622,2.948Z"
                                            transform="translate(-331.45 -473.284)" fill="#ebd2a1" />
                                    </g>
                                    <path id="Path_279" data-name="Path 279" d="M466.2,446.789"
                                        transform="translate(-209.351 -322.77)" fill="#60a8c6" />
                                    <path id="Path_280" data-name="Path 280"
                                        d="M486.6,446.9c-.067-.01-.139-.025-.2-.031.178.124.332.252.494.382l-.553-.422-1.393.04-4.03,1.765-5.465,5.3-7.2,4.228-4.587,2.3-5.014-3.429h-4l-11.5-11.3c-1.9.2-3.591,2.336-3.591,2.336l.219.618c.412,2.923,2.265,15.652,5.381,30.018,4.289,19.783,10.974,42.64,19.581,47.2,8.67-4.593,14.83-27.78,18.61-47.66,2.942-15.511,5.871-27.5,5.991-28.612l-1.395-1.584-.025-.019"
                                        transform="translate(-233.551 -323.724)" fill="#60a8c6" />
                                    <g id="Group_104" data-name="Group 104" transform="translate(207.321 113.973)">
                                        <path id="Path_281" data-name="Path 281"
                                            d="M440.242,449.189l1.923-7.321s7.188,8.165,12.733,11.683,8.52,10.912,8.52,10.912C460.042,464.571,450.987,464.761,440.242,449.189Z"
                                            transform="translate(-440.242 -441.212)" fill="#5a9eba" />
                                        <path id="Path_282" data-name="Path 282"
                                            d="M475.172,449.2a.027.027,0,0,1-.01.017c-3.971,6.22-7.991,9.943-11.519,12.16-6.434,4.018-11.252,3.072-11.252,3.072a.024.024,0,0,1,.01-.017c.011-.033.042-.105.084-.214.479-1.269,3.074-7.51,8.029-10.655,0,0,.03-.021.1-.059a43.582,43.582,0,0,0,5.432-4.3c.845-.778,1.67-1.563,2.446-2.316l.172-.174c.443-.445.868-.866,1.261-1.269.113-.111.212-.223.313-.322,1.389-1.443,2.431-2.58,2.832-3.036.071-.071.122-.132.179-.2l1.351,5.15Z"
                                            transform="translate(-429.21 -441.197)" fill="#5a9eba" />
                                        <path id="Path_283" data-name="Path 283"
                                            d="M454.9,453.862s-1.269,3.066-2.54,6.35c0,0-.01,0,0,.011-.17.422-.343.845-.5,1.271-.555,1.443-1.078,2.858-1.469,4.009a67.364,67.364,0,0,1-10.132-15.975.032.032,0,0,1-.01-.021l.828-3.385,1.116-4.578v-.021c.9,1.08,1.864,2.145,2.862,3.186.17.179.334.363.506.536,1.5,1.549,3.015,3.011,4.385,4.261,2.631,2.439,4.707,4.144,4.938,4.333Z"
                                            transform="translate(-440.242 -441.524)" fill="#77bad7" />
                                        <path id="Path_284" data-name="Path 284"
                                            d="M471.306,449.2a.027.027,0,0,1-.01.017,67.186,67.186,0,0,1-10.121,15.988c-.372-1.1-.88-2.439-1.4-3.828-.151-.393-.315-.8-.464-1.189-.05-.145-.114-.273-.155-.416-1.278-3.236-2.511-6.209-2.511-6.209s.03-.021.1-.059c.45-.345,2.639-1.975,5.308-4.3.83-.716,1.694-1.5,2.57-2.316l.172-.174c.426-.4.859-.817,1.28-1.248.111-.1.223-.214.332-.324.967-.979,1.918-2.005,2.794-3.055.071-.071.122-.132.179-.2l1.351,5.15Z"
                                            transform="translate(-425.344 -441.197)" fill="#77bad7" />
                                    </g>
                                    <g id="Group_105" data-name="Group 105" transform="translate(218.066 129.842)">
                                        <path id="Path_285" data-name="Path 285"
                                            d="M461.689,451.989a24.212,24.212,0,0,0-11.817,0l-1.214,3.208,3.225,5.642h7.732l3.29-5.642Z"
                                            transform="translate(-443.343 -448.554)" fill="#003d61" />
                                        <path id="Path_286" data-name="Path 286"
                                            d="M451.894,453.275l-3.961-3.434-1.5,3.814,4.249,2.829Z"
                                            transform="translate(-445.365 -449.841)" fill="#003050" />
                                        <path id="Path_287" data-name="Path 287"
                                            d="M455.488,453.047l4.14-2.955,1.552,3.941-4.478,2.223"
                                            transform="translate(-437.141 -449.613)" fill="#003050" />
                                        <path id="Path_288" data-name="Path 288"
                                            d="M459.7,456.279h-7.732l-3.4,52.86c4.555-7.018,9.3-14.038,13.154-21.531Z"
                                            transform="translate(-443.425 -443.994)" fill="#003050" />
                                        <path id="Path_289" data-name="Path 289"
                                            d="M464.172,472.7c-3.85,7.493-8.6,14.513-13.154,21.531l-5.144,80.05,12.437,16.686,12.439-16.686Z"
                                            transform="translate(-445.873 -429.084)" fill="#003d61" />
                                    </g>
                                    <g id="Group_108" data-name="Group 108" transform="translate(165.05 296.996)">
                                        <g id="Group_106" data-name="Group 106" transform="translate(0 13.139)">
                                            <path id="Path_290" data-name="Path 290"
                                                d="M512.236,674.24l-17.327-14.662a180.49,180.49,0,0,1-36.1,5.654l.779,15s7.327,18.663,36.649,18S520.9,681.567,512.236,674.24Z"
                                                transform="translate(-381.106 -439.671)" fill="#231f20" />
                                            <path id="Path_291" data-name="Path 291"
                                                d="M424.667,674.24c-8.663,7.327-13.33,23.321,15.99,23.992s36.653-18,36.653-18l.773-14.914c-.069,0-.137-.012-.208-.012-21.966-1.005-35.882-5.732-35.882-5.732S433.328,666.907,424.667,674.24Z"
                                                transform="translate(-418.088 -439.671)" fill="#231f20" />
                                            <path id="Path_292" data-name="Path 292"
                                                d="M427.013,632.888l10.012,131.348s13.916,4.726,35.882,5.732l5.667-192.153,10.588,183.693,1.666,8.382a180.5,180.5,0,0,0,36.1-5.654l5.121-131.348,2.316-88.559h-110.8l3.454,88.559"
                                                transform="translate(-413.12 -544.329)" fill="#ccc" />
                                        </g>
                                        <g id="Group_107" data-name="Group 107" transform="translate(9.861)">
                                            <path id="Path_293" data-name="Path 293"
                                                d="M534.443,546.835c-3.679,4.782-23.512,7.7-45.453,8.51-6.705.246-13.6.292-20.279.135-22.372-.506-42.488-3.3-45.455-8.645,0,0,.179-3.509.446-9.182,4.156,4.932,23.54,7.529,45.008,8.024,6.692.153,13.586.094,20.279-.143,21.273-.788,40.574-3.566,45.073-8.09C534.288,543.261,534.443,546.835,534.443,546.835Z"
                                                transform="translate(-423.256 -537.443)" fill="#404041" />
                                            <path id="Path_294" data-name="Path 294"
                                                d="M463.5,543.356v6.51c0,.893-.523,1.628-1.185,1.654-4.2.183-8.482.221-12.672.115-.668-.017-1.2-.754-1.2-1.654v-6.5c0-.922.559-1.658,1.242-1.645,4.158.1,8.4.052,12.559-.118C462.937,541.683,463.5,542.427,463.5,543.356Z"
                                                transform="translate(-400.382 -533.566)" fill="none" stroke="#d0d2d3"
                                                stroke-miterlimit="10" stroke-width="2.298" />
                                            <line id="Line_2" data-name="Line 2" x2="6.182"
                                                transform="translate(48.064 13.139)" fill="none" stroke="#d0d2d3"
                                                stroke-miterlimit="10" stroke-width="1.149" />
                                        </g>
                                    </g>
                                    <path id="Path_295" data-name="Path 295"
                                        d="M500.938,528.439c6.732-2.32,25.544,3.648,33.634,3.816a.192.192,0,0,0-.042-.021c-.008-.025-.057-.38-.149-.971a222.168,222.168,0,0,0-9.05-35.895l.427-.183S509.45,450.932,498.516,451.7s-33.991-5.371-33.991-5.371a69.367,69.367,0,0,1-.41,13.181V719.736H507.74s-5.511-129.716-9.147-176.8c0-.038,0,.031,0,0-.246-3.179.265,2.442,0,0h0Z"
                                        transform="translate(-211.242 -323.185)" fill="#1f7378" />
                                    <path id="Path_296" data-name="Path 296"
                                        d="M433.366,538.664c-6.732-2.316-21.831-7.173-29.921-7l.042-.023c.008-.029.057-.38.147-.973a222.114,222.114,0,0,1,9.052-35.9l-.424-.179s16.3-44.256,27.238-43.482,33.991-5.371,33.991-5.371a68.939,68.939,0,0,0,.41,13.183V719.14H430.275s10.361-125.7,14-172.784c0-.038,0,.027,0,0,.244-3.179-8.144-.582-7.88-3.024l-.029.008Z"
                                        transform="translate(-266.336 -323.724)" fill="#1f7378" />
                                    <g id="Group_109" data-name="Group 109" transform="translate(136.749 151.861)">
                                        <path id="Path_297" data-name="Path 297"
                                            d="M505.243,461.382H530s8.928-.4,16.232,14.813l27.492,68.07s2.511,9.285-3.729,16.513-16.662,7.457-17.879,7.381S439.2,562.831,439.2,562.831l1.826-38.652,87.958,6.392Z"
                                            transform="translate(-370.616 -461.38)" fill="#1f7378" />
                                        <path id="Path_298" data-name="Path 298"
                                            d="M427.788,511.192s-4.717.838-4.412,5.1,5.554,4.492,8.674,4.261c0,0-4.732,1.217-4.347,4.337s1.834,4.566,4.347,4.721a49.626,49.626,0,0,0,5.1,0s-4.184.531-4.793,3.192-.609,4.793,2.053,5.707,30.209,1.752,30.209,1.752,5.564-3.129,7.459-2.668l1.435-30.364L438.163,487.15s-4.135-2.322-4.667-3.425c0,0-5.9,3.16-1.255,9.052s10.462,6.926,10.615,7.762.607,2.055-1.979,1.752-29.368-1.219-31.575-1.143-6.467,1.521-6.011,4.868,4.944,4.644,7,4.644S427.788,511.192,427.788,511.192Z"
                                            transform="translate(-403.256 -441.089)" fill="#ebd2a1" />
                                    </g>
                                    <g id="Group_129" data-name="Group 129" transform="translate(195.946 57.084)">
                                        <g id="Group_111" data-name="Group 111" transform="translate(16.661 31.36)">
                                            <g id="Group_110" data-name="Group 110">
                                                <path id="Path_299" data-name="Path 299"
                                                    d="M479.117,435.957c-.567-3.12-2.017-4.988-4.118-5.961a12.931,12.931,0,0,0-6.52-1.559c-3.276.093-6.949.572-6.949.572a17.219,17.219,0,0,0-9.521-.328,14.457,14.457,0,0,0-8.489,6.423c-1.374,2.641.431,12.332.851,15.744a8.922,8.922,0,0,0,3.526,5.713c.8.515,8.743,4.891,10.09,4.944,1.681.057,3.364.126,5.041.195a15.986,15.986,0,0,0,5.451-.641,33.949,33.949,0,0,0,9.372-6.57C480.512,451.811,479.361,437.308,479.117,435.957Zm-14.326,6.808c-.695,0-4.572-.042-5.247-.145-1.074-.156,3.261,6.379-2.708,4.143-5.381-2.015-9.489-6.652-9.489-9.953,0-3.519,4.887-3.377,10.626-4.352a20.729,20.729,0,0,0,3.841-1.465,25.385,25.385,0,0,0,3.994,1.421c5.879.922,10.9,1.383,10.9,4.963,0,3.837-4.526,7.953-10.214,9.924C462.8,448.577,465.638,442.765,464.791,442.765Z"
                                                    transform="translate(-443.012 -428.145)" fill="#3b2f18" />
                                            </g>
                                        </g>
                                        <g id="Group_128" data-name="Group 128">
                                            <g id="Group_121" data-name="Group 121">
                                                <g id="Group_112" data-name="Group 112"
                                                    transform="translate(2.978 0.692)" opacity="0.14">
                                                    <path id="Path_300" data-name="Path 300"
                                                        d="M436.234,417.749c-1.479,4.9,1,16.73,11.054,16.03,8.817-.622,13.42-3.568,15.122-8.405,4.478-12.729-1.112-12.315-9.378-13.078C444.229,411.473,437.715,412.843,436.234,417.749Z"
                                                        transform="translate(-435.841 -412.072)" fill="#fff" />
                                                </g>
                                                <g id="Group_113" data-name="Group 113"
                                                    transform="translate(38.947 0.761)" opacity="0.14">
                                                    <path id="Path_301" data-name="Path 301"
                                                        d="M482.453,417.782c1.483,4.911-.992,16.734-11.056,16.032-8.817-.62-13.42-3.568-15.12-8.4-4.478-12.735,1.118-12.323,9.382-13.088C474.456,411.514,480.974,412.88,482.453,417.782Z"
                                                        transform="translate(-454.692 -412.109)" fill="#fff" />
                                                </g>
                                                <g id="Group_116" data-name="Group 116"
                                                    transform="translate(4.315 0.774)">
                                                    <g id="Group_114" data-name="Group 114" opacity="0.14">
                                                        <path id="Path_302" data-name="Path 302"
                                                            d="M439.732,431.778l-3.19-5.1,7.733-14.564,5.881.207Z"
                                                            transform="translate(-436.542 -412.115)" fill="#fff" />
                                                    </g>
                                                    <g id="Group_115" data-name="Group 115"
                                                        transform="translate(5.914 0.276)" opacity="0.14">
                                                        <path id="Path_303" data-name="Path 303"
                                                            d="M441.88,432.8l-2.238-.1,10.635-20.439,2.245.285Z"
                                                            transform="translate(-439.642 -412.26)" fill="#fff" />
                                                    </g>
                                                </g>
                                                <g id="Group_119" data-name="Group 119"
                                                    transform="translate(42.142 0.843)">
                                                    <g id="Group_117" data-name="Group 117" opacity="0.14">
                                                        <path id="Path_304" data-name="Path 304"
                                                            d="M460.217,431.806l-3.851-3.635,8.4-16.02,5.877.207Z"
                                                            transform="translate(-456.366 -412.151)" fill="#fff" />
                                                    </g>
                                                    <g id="Group_118" data-name="Group 118"
                                                        transform="translate(6.584 0.276)" opacity="0.14">
                                                        <path id="Path_305" data-name="Path 305"
                                                            d="M462.053,432.838l-2.236-.1L470.449,412.3l2.24.276Z"
                                                            transform="translate(-459.817 -412.296)" fill="#fff" />
                                                    </g>
                                                </g>
                                                <g id="Group_120" data-name="Group 120">
                                                    <path id="Path_306" data-name="Path 306"
                                                        d="M504.137,413.668c0-2.219-6.161-1.515-16.354-1.914-7.037-.28-12.55.759-14.9,3.028h-7.318c-2.353-2.269-7.865-3.309-14.895-3.028-10.2.4-16.356-.305-16.356,1.914a2.207,2.207,0,0,0,.2,1.41c.695,1.149,1.92,0,2.122,5.32,0,0,.633,3.881.809,5.184.908,6.76,5.5,8.426,9.283,8.882a22.864,22.864,0,0,0,9.392-.7c3.7-.895,6.724-4.343,8.378-7.776a35.249,35.249,0,0,0,2.061-6.764H471.9a34.534,34.534,0,0,0,2.055,6.764c1.652,3.433,4.679,6.881,8.377,7.776a22.854,22.854,0,0,0,9.39.7c3.784-.456,8.378-2.122,9.289-8.882.176-1.3.807-5.184.807-5.184.206-5.32,1.435-4.171,2.12-5.32A2.19,2.19,0,0,0,504.137,413.668Zm-39.645,5.951a18.925,18.925,0,0,1-1.517,6.167c-1.647,3.429-3.566,5.871-7.262,6.762a22.5,22.5,0,0,1-9.289.6c-3.778-.45-6.97-2.316-7.873-9.081-.178-1.3-.407-4.242-.407-4.242-.2-5.3,5.852-7.06,11.91-6.961C460.152,413.027,465.506,414.882,464.492,419.62Zm35.809.206s-.229,2.94-.41,4.242c-.906,6.764-4.089,8.63-7.873,9.081a22.484,22.484,0,0,1-9.285-.6c-3.706-.891-5.623-3.333-7.27-6.762a19.094,19.094,0,0,1-1.513-6.167c-1.011-4.738,4.343-6.593,14.435-6.755C494.446,412.766,500.5,414.525,500.3,419.826Z"
                                                        transform="translate(-434.28 -411.71)" />
                                                </g>
                                            </g>
                                            <g id="Group_125" data-name="Group 125" transform="translate(12.637 3.439)">
                                                <g id="Group_124" data-name="Group 124">
                                                    <g id="Group_122" data-name="Group 122">
                                                        <path id="Path_307" data-name="Path 307"
                                                            d="M445.534,413.512c2.553,0,4.633,2.362,4.633,5.264s-2.08,5.268-4.633,5.268-4.631-2.36-4.631-5.268S442.973,413.512,445.534,413.512Z"
                                                            transform="translate(-440.903 -413.512)" fill="#332113" />
                                                    </g>
                                                    <g id="Group_123" data-name="Group 123"
                                                        transform="translate(37.611)">
                                                        <path id="Path_308" data-name="Path 308"
                                                            d="M465.245,413.512c2.559,0,4.631,2.362,4.631,5.264s-2.072,5.268-4.631,5.268-4.631-2.36-4.631-5.268S462.688,413.512,465.245,413.512Z"
                                                            transform="translate(-460.614 -413.512)" fill="#332113" />
                                                    </g>
                                                </g>
                                            </g>
                                            <g id="Group_126" data-name="Group 126" transform="translate(16.574 5.779)">
                                                <path id="Path_309" data-name="Path 309"
                                                    d="M444.322,417.541a1.4,1.4,0,0,0,0-2.8,1.4,1.4,0,0,0,0,2.8Z"
                                                    transform="translate(-442.967 -414.738)" fill="#fff" />
                                            </g>
                                            <g id="Group_127" data-name="Group 127" transform="translate(52.241 7.305)">
                                                <path id="Path_310" data-name="Path 310"
                                                    d="M463.014,418.341a1.4,1.4,0,0,0,0-2.8,1.4,1.4,0,0,0,0,2.8Z"
                                                    transform="translate(-461.659 -415.538)" fill="#fff" />
                                            </g>
                                        </g>
                                    </g>
                                </g>
                                <g id="Group_131" data-name="Group 131" transform="translate(184.363 116.417)">
                                    <path id="Path_312" data-name="Path 312"
                                        d="M488.029,511.226l-.311-2.1A6.356,6.356,0,0,0,493,501.513l-7.724-36.12a9.985,9.985,0,0,0-19.728,2.908l3.011,36.813a6.352,6.352,0,0,0,7.255,5.764l.782-.116.309,2.1-.782.12a8.481,8.481,0,0,1-9.678-7.693l-3.009-36.817a12.1,12.1,0,0,1,23.912-3.52l7.726,36.12a8.477,8.477,0,0,1-7.05,10.155"
                                        transform="translate(-396.255 -431.48)" fill="#231f20" />
                                    <path id="Path_313" data-name="Path 313"
                                        d="M463.487,442.805c0,.032.008.063.011.1,0,.124.008.248.015.376.034.084.082.162.113.248a23.212,23.212,0,0,1,.935,3.933,25.371,25.371,0,0,1,5.413,8.844,44.4,44.4,0,0,1,2.662,13.347l2.885-.04C475.518,469.381,475.073,450.936,463.487,442.805Z"
                                        transform="translate(-396.175 -442.805)" fill="#231f20" />
                                    <path id="Path_314" data-name="Path 314"
                                        d="M446.489,447.917a37.233,37.233,0,0,1,1.13-3.751c0-.1.01-.2.017-.3a4.947,4.947,0,0,1-.166-.6c-7.6,5.82-8.663,15.757-9.371,22.468-.126,1.189-.242,2.3-.384,3.293-1.6,11.189-4.507,38.815-4.536,39.089l2.864.305c.032-.277,2.933-27.851,4.524-38.99.145-1.023.269-2.166.4-3.394.6-5.719,1.364-12.685,5.446-17.747C446.432,448.159,446.459,448.039,446.489,447.917Z"
                                        transform="translate(-423.697 -442.395)" fill="#231f20" />
                                    <path id="Path_315" data-name="Path 315"
                                        d="M447.175,485.106a9.482,9.482,0,1,1-9.483-9.479,9.482,9.482,0,0,1,9.483,9.479"
                                        transform="translate(-428.21 -412.999)" fill="#231f20" />
                                    <path id="Path_316" data-name="Path 316"
                                        d="M442.815,483.7a6.529,6.529,0,1,1-6.528-6.528,6.528,6.528,0,0,1,6.528,6.528"
                                        transform="translate(-426.804 -411.595)" fill="#231f20" />
                                </g>
                            </g>
                            <g id="Group_51" data-name="Group 51" transform="translate(1053.069 2022.678) rotate(-16)">
                                <path id="Path_1" data-name="Path 1"
                                    d="M208.826,327.709a3.4,3.4,0,0,0-2.815-1.323c-1.662,0-2.459.7-2.459,1.577,0,1.034,1.221,1.323,2.646,1.492,2.476.305,4.782.95,4.782,3.782,0,2.646-2.34,3.782-4.986,3.782-2.425,0-4.29-.746-5.172-2.917l1.865-.967a3.384,3.384,0,0,0,3.341,1.882c1.407,0,2.73-.492,2.73-1.781,0-1.119-1.17-1.577-2.747-1.747-2.425-.288-4.664-.933-4.664-3.6,0-2.442,2.408-3.443,4.6-3.46,1.848,0,3.765.526,4.664,2.357Z"
                                    transform="translate(-15 1.875)" fill="#2e7b80" />
                                <path id="Path_2" data-name="Path 2"
                                    d="M315.669,364.287a2.225,2.225,0,0,0,2.493,1.781,3.45,3.45,0,0,0,2.239-.78l1.323,1.306a5.135,5.135,0,0,1-3.6,1.357,4.419,4.419,0,1,1-.153-8.835c2.8,0,4.545,1.73,4.223,5.172Zm4.545-1.713a1.915,1.915,0,0,0-2.171-1.628,2.252,2.252,0,0,0-2.34,1.628Z"
                                    transform="translate(-116.673 -29.057)" fill="#2f7c81" />
                                <path id="Path_3" data-name="Path 3"
                                    d="M411.133,328.289v4.647a3.087,3.087,0,0,1,2.612-1.255c2.374,0,3.426,1.611,3.426,4.07v4.409H415.1v-4.392c0-1.526-.8-2.171-1.9-2.171a2.143,2.143,0,0,0-2.069,2.289v4.274h-2.069V328.289Z"
                                    transform="translate(-202.623 -1.266)" fill="#2f7c81" />
                                <path id="Path_5" data-name="Path 5"
                                    d="M606.01,368.591v-4.477c0-1.1-.577-2.1-1.713-2.1a1.908,1.908,0,0,0-1.781,2.1v4.477h-2.069v-8.378h1.916l.153,1.018a2.423,2.423,0,0,1,2.2-1.153,2.505,2.505,0,0,1,2.476,1.56,3.027,3.027,0,0,1,2.8-1.526c2.374,0,3.544,1.458,3.544,3.968v4.511h-2.069V364.08c0-1.1-.458-2.035-1.577-2.035a1.9,1.9,0,0,0-1.815,2.069v4.477Z"
                                    transform="translate(-366.032 -29.596)" fill="#2f7d82" />
                                <path id="Path_6" data-name="Path 6"
                                    d="M742.912,364.287a2.225,2.225,0,0,0,2.493,1.781,3.45,3.45,0,0,0,2.239-.78l1.323,1.306a5.136,5.136,0,0,1-3.6,1.357,4.419,4.419,0,1,1-.153-8.835c2.8,0,4.545,1.73,4.223,5.172Zm4.545-1.713a1.915,1.915,0,0,0-2.171-1.628,2.252,2.252,0,0,0-2.34,1.628Z"
                                    transform="translate(-492.39 -28.633)" fill="#2f7d82" />
                                <g id="Group_256" data-name="Group 256" transform="translate(215.987 330.482)">
                                    <g id="Group_255" data-name="Group 255" transform="translate(0 0)">
                                        <path id="Path_4" data-name="Path 4"
                                            d="M505.1,359.8h1.984v8.361h-1.95l-.1-1.221a3.177,3.177,0,0,1-2.713,1.475c-2.476.017-4.307-1.509-4.307-4.443a4.071,4.071,0,0,1,4.358-4.375,3.069,3.069,0,0,1,2.662,1.357Zm-5.02,4.172a2.4,2.4,0,0,0,2.476,2.544c3.256,0,3.256-5.07,0-5.07A2.381,2.381,0,0,0,500.082,363.97Z"
                                            transform="translate(-498.013 -359.595)" fill="#910c1d" />
                                        <circle id="Ellipse_1" data-name="Ellipse 1" cx="2.969" cy="2.969" r="2.969"
                                            transform="translate(1.697 1.406)" fill="#910c1d" />
                                    </g>
                                    <g id="Layer_2" data-name="Layer 2" transform="translate(1.531 2.3)">
                                        <g id="Group_1" data-name="Group 1">
                                            <path id="Path_7" data-name="Path 7"
                                                d="M514.444,382.453a.109.109,0,0,1,.21.027l.173,2.026.325-1.17a.108.108,0,0,1,.21,0l.181.784.309-1.3a.109.109,0,0,1,.213.01l.23,1.643.1-.334a.109.109,0,0,1,.1-.076h1.161a2,2,0,0,0,.332-.758,1.678,1.678,0,0,0-.257-1.333,1.657,1.657,0,0,0-1.218-.6,1.5,1.5,0,0,0-.151-.008,1.724,1.724,0,0,1-2.2,0,1.5,1.5,0,0,0-.152.008,1.657,1.657,0,0,0-1.218.6,1.679,1.679,0,0,0-.257,1.333,2.02,2.02,0,0,0,.34.77h.974Z"
                                                transform="translate(-512.511 -381.373)" fill="#fff" />
                                            <path id="Path_8" data-name="Path 8"
                                                d="M520.845,398.742l0,.009a.108.108,0,0,1-.1.067h-.009a.108.108,0,0,1-.1-.093l-.218-1.554-.283,1.188,0,.009a.109.109,0,0,1-.1.074h-.011a.109.109,0,0,1-.095-.083l-.189-.819-.372,1.34,0,.009a.108.108,0,0,1-.1.071h-.01a.108.108,0,0,1-.1-.1l-.168-1.964-.014-.168-.443,1.233-.005.012a.109.109,0,0,1-.08.059h-.911a12.1,12.1,0,0,0,1.289,1.343s.369.371.48.466a.6.6,0,0,0,.92,0c.111-.1.48-.466.48-.466a11.979,11.979,0,0,0,1.3-1.355h-.926Z"
                                                transform="translate(-516.997 -395.105)" fill="#fff" />
                                        </g>
                                    </g>
                                </g>
                                <rect id="Rectangle_51" data-name="Rectangle 51" width="7.599" height="2.171"
                                    transform="translate(225.938 333.653)" fill="#2e7b80" />
                            </g>
                        </g>
                    </g>
                </svg>