<svg xmlns="http://www.w3.org/2000/svg" width="201" height="207.931" viewBox="0 0 201 207.931">
  <g id="video_call-doctor-consultation-online-computer" data-name="video call-doctor-consultation-online-computer" transform="translate(-4 -2)">
    <path id="Path_141" data-name="Path 141" d="M43.19,64.4H36.259V54H22.4V64.4H15.466A3.466,3.466,0,0,0,12,67.862v6.931H46.655V67.862A3.466,3.466,0,0,0,43.19,64.4Z" transform="translate(19.724 128.207)" fill="#1b5a5e"/>
    <path id="Path_142" data-name="Path 142" d="M90.638,34H7.466A3.466,3.466,0,0,0,4,37.466V92.914a3.466,3.466,0,0,0,3.466,3.466H90.638A3.466,3.466,0,0,0,94.1,92.914V37.466A3.466,3.466,0,0,0,90.638,34ZM52.517,68.655H45.586V61.724h6.931Z" transform="translate(0 78.897)" fill="#1b5a5e"/>
    <path id="Path_143" data-name="Path 143" d="M39,18H52.862v6.931H39Z" transform="translate(86.293 39.448)" fill="#1b5a5e"/>
    <path id="Path_144" data-name="Path 144" d="M47,18H60.862v6.931H47Z" transform="translate(106.017 39.448)" fill="#1b5a5e"/>
    <path id="Path_145" data-name="Path 145" d="M131.134,118.06l-13.03-2.01v21.1h3.466a10.428,10.428,0,0,1,10.4,10.4v13.862a3.466,3.466,0,0,1-3.466,3.466H118.1v-6.931h6.931v-10.4a3.466,3.466,0,0,0-3.466-3.466H107.707a3.466,3.466,0,0,0-3.466,3.466v10.4h6.931v6.931h-10.4a3.466,3.466,0,0,1-3.466-3.466V147.552a10.428,10.428,0,0,1,10.4-10.4h3.466V114.976l-10.4-1.594v-9.253a31.155,31.155,0,0,0,20.585-25.887h.208a13.713,13.713,0,0,0,13.1-9.149,13.931,13.931,0,0,0-13.1-18.575V33.19A31.28,31.28,0,0,0,90.379,2H83.448a31.28,31.28,0,0,0-31.19,31.19V50.517a13.931,13.931,0,0,0-13.1,18.575,13.713,13.713,0,0,0,13.1,9.149h.208a31.155,31.155,0,0,0,20.585,25.887v9.253l-6.931,1.074V137.64a13.862,13.862,0,1,1-6.931,0V115.53L41.9,118.164c0,.035-.035.035-.035.069v57.042a6.952,6.952,0,0,1-6.931,6.931H28v24.259a3.466,3.466,0,0,0,3.466,3.466h110.9a3.466,3.466,0,0,0,3.466-3.466V135.18a17.352,17.352,0,0,0-14.694-17.12Zm-9.565-60.612a6.931,6.931,0,0,1,0,13.862ZM52.259,71.31a6.931,6.931,0,1,1,0-13.862ZM76.517,22.793h6.931V15.862h6.931v6.931H97.31v6.931H90.379v6.931H83.448V29.724H76.517ZM59.19,71.31V50.517h55.448V71.31Zm34.655,48.517a6.931,6.931,0,1,1-13.862,0v-14.07a28.632,28.632,0,0,0,3.466.208h6.931a28.632,28.632,0,0,0,3.465-.208Z" transform="translate(59.172)" fill="#1b5a5e"/>
    <path id="Path_146" data-name="Path 146" d="M37,44h6.931v6.931H37Z" transform="translate(81.362 103.552)" fill="#1b5a5e"/>
    <path id="Path_147" data-name="Path 147" d="M43.147,12.933a44.885,44.885,0,0,1,31.862,13.2l4.89-4.914a51.983,51.983,0,0,0-73.5,0l4.89,4.914a44.885,44.885,0,0,1,31.862-13.2Z" transform="translate(5.905 9.86)" fill="#1b5a5e"/>
    <path id="Path_148" data-name="Path 148" d="M63.126,21.17a38.1,38.1,0,0,0-53.9,0l4.9,4.9a31.19,31.19,0,0,1,44.1,0Z" transform="translate(12.877 19.724)" fill="#1b5a5e"/>
    <path id="Path_149" data-name="Path 149" d="M46.36,21.123a24.22,24.22,0,0,0-34.309,0L16.976,26a17.286,17.286,0,0,1,24.467,0Z" transform="translate(19.85 29.588)" fill="#1b5a5e"/>
    <ellipse id="Ellipse_35" data-name="Ellipse 35" cx="10" cy="10.5" rx="10" ry="10.5" transform="translate(39 57)" fill="#1b5a5e"/>
  </g>
</svg>
