<svg xmlns="http://www.w3.org/2000/svg" width="43.833" height="35.614" viewBox="0 0 43.833 35.614">
  <path id="envelop" d="M39.723,4H4.109A4.121,4.121,0,0,0,0,8.109V35.5a4.121,4.121,0,0,0,4.109,4.109H39.723A4.121,4.121,0,0,0,43.833,35.5V8.109A4.121,4.121,0,0,0,39.723,4ZM17.069,22.08,5.479,31.106V9.634L17.069,22.08ZM7.55,9.479H36.282L21.916,20.266,7.55,9.479Zm9.969,13.085,4.4,4.722,4.4-4.722,9.013,11.57H8.508l9.013-11.57Zm9.245-.485L38.353,9.634V31.106L26.764,22.08Z" transform="translate(0 -4)" fill="#1b5a5e"/>
</svg>
