<svg xmlns="http://www.w3.org/2000/svg" width="34.755" height="23.5" viewBox="0 0 34.755 23.5">
  <path id="eye" d="M17.377,6C9.8,6,3.228,10.775,0,17.75,3.228,24.725,9.8,29.5,17.377,29.5s14.148-4.775,17.377-11.75C31.527,10.775,24.957,6,17.377,6Zm8.568,6.231a17.274,17.274,0,0,1,5.072,5.519,17.286,17.286,0,0,1-5.072,5.519,14.918,14.918,0,0,1-17.136,0A17.274,17.274,0,0,1,3.737,17.75a17.286,17.286,0,0,1,5.072-5.519q.2-.137.4-.268a10.072,10.072,0,0,0-.523,3.216c0,5.191,3.89,9.4,8.689,9.4s8.689-4.209,8.689-9.4a10.037,10.037,0,0,0-.523-3.216q.2.13.4.268Zm-8.568,1.994a3.4,3.4,0,0,1-3.258,3.525,3.4,3.4,0,0,1-3.258-3.525A3.4,3.4,0,0,1,14.119,10.7,3.4,3.4,0,0,1,17.377,14.225Z" transform="translate(0 -6)" fill="#153b3d"/>
</svg>
