<svg xmlns="http://www.w3.org/2000/svg" width="37.194" height="34.62" viewBox="0 0 37.194 34.62">
  <g id="_3289562_family_group_peers_people_icon" data-name="3289562_family_group_peers_people_icon" transform="translate(-5.047 -8)">
    <circle id="Ellipse_2" data-name="Ellipse 2" cx="3.029" cy="3.029" r="3.029" transform="translate(9.787 8)" fill="#fff"/>
    <circle id="Ellipse_3" data-name="Ellipse 3" cx="3.029" cy="3.029" r="3.029" transform="translate(22.769 8)" fill="#fff"/>
    <circle id="Ellipse_4" data-name="Ellipse 4" cx="2.164" cy="2.164" r="2.164" transform="translate(35.319 26.608)" fill="#fff"/>
    <path id="Path_2" data-name="Path 2" d="M42.156,45.724l-1.515-3.635a4.187,4.187,0,0,0-2.25-1.558,5.89,5.89,0,0,0-.909-.087H35.319L33.5,37.372a1.65,1.65,0,0,0,.043-.649L31.511,26.51a7.509,7.509,0,0,0-3.072-2.034A7.769,7.769,0,0,0,25.755,24a7.956,7.956,0,0,0-2.683.476A8.128,8.128,0,0,0,20,26.51l-.692,3.851-.779-3.851a7.51,7.51,0,0,0-3.072-2.034A7.769,7.769,0,0,0,12.773,24a7.956,7.956,0,0,0-2.683.476A8.128,8.128,0,0,0,7.017,26.51L5.07,36.723a1.283,1.283,0,0,0,1.039,1.515.324.324,0,0,0,.216.043A1.258,1.258,0,0,0,7.58,37.242l1.774-8.785V51.7h2.6V38.281h1.731V51.7h2.6V28.457l1.774,8.785a1.258,1.258,0,0,0,1.255,1.039h0a1.258,1.258,0,0,0,1.255-1.039l1.774-8.785v4.717l-1.644,8.179h1.644V51.7h2.6V41.31h1.731V51.7h2.6V41.353H30.9L29.26,33.174V28.457l1.774,8.785a1.245,1.245,0,0,0,1,1l3.289,5.582V51.7H37.05V46.5h.865V51.7h1.731v-7.53l.952,2.25a.832.832,0,0,0,.779.519.52.52,0,0,0,.346-.087A.824.824,0,0,0,42.156,45.724Z" transform="translate(0 -9.076)" fill="#fff"/>
  </g>
</svg>
