<svg id="key" xmlns="http://www.w3.org/2000/svg" width="43.28" height="37.538" viewBox="0 0 43.28 37.538">
  <path id="Path_92" data-name="Path 92" d="M232.594,53.66l-2.442-2.348a1.274,1.274,0,0,0-1.035-.346l-.822.1-1.95-1.933a1.265,1.265,0,0,0-.147-1.68l-2.447-2.3a8.5,8.5,0,1,0-6.744,5.641l9.245,9.221a1.276,1.276,0,0,0,1.157.346l3.627-.746a1.27,1.27,0,0,0,.979-.941l.931-3.8A1.265,1.265,0,0,0,232.594,53.66Zm-2.859,3.63-2.167.445-9.241-9.217a1.276,1.276,0,0,0-1.2-.336,5.922,5.922,0,1,1,3.971-3.241,1.265,1.265,0,0,0,.279,1.461l2.131,2a1.265,1.265,0,0,0,.143,1.629l3.288,3.26a1.274,1.274,0,0,0,1.049.36l.834-.1L230.3,54.98Z" transform="translate(-189.702 -33.965)" fill="#fff"/>
  <path id="Path_93" data-name="Path 93" d="M280.186,105.1a1.272,1.272,0,1,0-.736,1.408A1.285,1.285,0,0,0,280.186,105.1Z" transform="translate(-254.197 -98.155)" fill="#fff"/>
  <path id="Path_94" data-name="Path 94" d="M38.851,203.41H27.871a4.271,4.271,0,0,0-1.122-4.088L17.8,190.4a10.3,10.3,0,0,0-7.321-3.022H1.272A1.27,1.27,0,0,0,0,188.65v9.233a1.27,1.27,0,0,0,1.272,1.268H4.791L15.457,209.63a8.059,8.059,0,0,0,5.681,2.321H38.852a4.271,4.271,0,1,0,0-8.542Zm0,6.006H21.138a5.525,5.525,0,0,1-3.895-1.592L6.205,196.98a1.274,1.274,0,0,0-.893-.365H2.544v-6.7h7.938A7.771,7.771,0,0,1,16,192.2l8.947,8.917a1.74,1.74,0,0,1,0,2.463c-.014.014-.03.026-.044.04a1.753,1.753,0,0,1-2.429-.039l-6.654-6.632a1.27,1.27,0,1,0-1.8,1.793l6.654,6.632a4.309,4.309,0,0,0,5.355.574H38.852a1.735,1.735,0,1,1,0,3.47Z" transform="translate(0 -174.413)" fill="#fff"/>
</svg>
