<svg xmlns="http://www.w3.org/2000/svg" width="328.258" height="59.91" viewBox="0 0 328.258 59.91">
  <g id="Group_51" data-name="Group 51" transform="translate(-185.822 -326.311)">
    <path id="Path_1" data-name="Path 1" d="M237.69,339.512c-1.875-3.124-7.03-6.093-12.967-6.093-7.654,0-11.326,3.2-11.326,7.264,0,4.765,5.624,6.093,12.185,6.874,11.4,1.407,22.027,4.374,22.027,17.419,0,12.185-10.779,17.418-22.964,17.418-11.17,0-19.762-3.436-23.824-13.434l8.592-4.453c2.421,6.014,8.748,8.67,15.388,8.67,6.483,0,12.576-2.266,12.576-8.2,0-5.155-5.39-7.264-12.654-8.045-11.169-1.328-21.48-4.3-21.48-16.559,0-11.248,11.092-15.856,21.168-15.934,8.514,0,17.341,2.421,21.481,10.857Z" transform="translate(-15 1.875)" fill="#1b5a5e"/>
    <path id="Path_2" data-name="Path 2" d="M323.374,382.939c.625,4.764,4.764,8.2,11.482,8.2,3.515,0,8.124-1.328,10.311-3.593l6.092,6.014c-4.061,4.218-10.7,6.249-16.559,6.249-13.278,0-21.168-8.2-21.168-20.542,0-11.717,7.968-20.153,20.465-20.153,12.888,0,20.934,7.967,19.449,23.824Zm20.934-7.889c-.625-5-4.53-7.5-10-7.5-5.155,0-9.373,2.5-10.779,7.5Z" transform="translate(-76.875 -15.542)" fill="#1b5a5e"/>
    <path id="Path_3" data-name="Path 3" d="M418.593,328.289v21.4a14.22,14.22,0,0,1,12.029-5.781c10.935,0,15.779,7.42,15.779,18.747v20.309h-9.53V362.736c0-7.03-3.671-10-8.748-10-5.624,0-9.53,4.764-9.53,10.545v19.684h-9.529V328.289Z" transform="translate(-128.27 1.301)" fill="#1b5a5e"/>
    <path id="Path_5" data-name="Path 5" d="M626.068,399.289V378.668c0-5.077-2.656-9.686-7.889-9.686-5.156,0-8.2,4.608-8.2,9.686v20.621h-9.529V360.7h8.826l.7,4.687c2.031-3.906,6.483-5.312,10.155-5.312,4.608,0,9.216,1.875,11.4,7.187,3.437-5.468,7.889-7.031,12.888-7.031,10.935,0,16.325,6.717,16.325,18.278v20.777h-9.53V378.512c0-5.077-2.109-9.373-7.264-9.373s-8.358,4.452-8.358,9.529v20.621Z" transform="translate(-190.805 -14.554)" fill="#1b5a5e"/>
    <path id="Path_6" data-name="Path 6" d="M750.617,382.939c.625,4.764,4.765,8.2,11.482,8.2,3.515,0,8.123-1.328,10.311-3.593l6.093,6.014c-4.062,4.218-10.7,6.249-16.559,6.249-13.279,0-21.168-8.2-21.168-20.542,0-11.717,7.967-20.153,20.464-20.153,12.889,0,20.934,7.967,19.45,23.824Zm20.934-7.889c-.625-5-4.53-7.5-10-7.5-5.155,0-9.373,2.5-10.779,7.5Z" transform="translate(-266.785 -13.59)" fill="#1b5a5e"/>
    <g id="Group_256" data-name="Group 256" transform="translate(-20.648 3.983)">
      <g id="Group_255" data-name="Group 255">
        <path id="Path_4" data-name="Path 4" d="M530.663,360.533H539.8v38.508h-8.983l-.469-5.624c-2.187,4.53-8.2,6.718-12.5,6.8-11.4.078-19.84-6.951-19.84-20.465,0-13.279,8.826-20.23,20.074-20.153,5.156,0,10.076,2.422,12.263,6.249Zm-23.121,19.215c0,7.342,5.078,11.716,11.4,11.716,15,0,15-23.355,0-23.355C512.62,368.11,507.542,372.406,507.542,379.748Z" transform="translate(-152.604 -18.054)" fill="#910c1d"/>
        <circle id="Ellipse_1" data-name="Ellipse 1" cx="13.674" cy="13.674" r="13.674" transform="translate(353.224 348.016)" fill="#910c1d"/>
      </g>
      <g id="Layer_2" data-name="Layer 2" transform="translate(352.463 352.136)">
        <g id="Group_1" data-name="Group 1">
          <path id="Path_7" data-name="Path 7" d="M521.411,386.35a.5.5,0,0,1,.969.126l.8,9.332,1.5-5.391a.5.5,0,0,1,.969.021l.833,3.613,1.422-5.975a.5.5,0,0,1,.981.046l1.061,7.566.476-1.538a.5.5,0,0,1,.478-.352h5.347a9.22,9.22,0,0,0,1.529-3.49,7.729,7.729,0,0,0-1.185-6.139,7.632,7.632,0,0,0-5.61-2.761,6.861,6.861,0,0,0-.7-.036,8.165,8.165,0,0,0-5.061,1.82,8.158,8.158,0,0,0-5.057-1.82,6.892,6.892,0,0,0-.7.036,7.631,7.631,0,0,0-5.61,2.761,7.733,7.733,0,0,0-1.185,6.139,9.3,9.3,0,0,0,1.566,3.545h4.487Z" transform="translate(-512.512 -381.373)" fill="#fff"/>
          <path id="Path_8" data-name="Path 8" d="M532.809,406.007c0,.014-.009.027-.015.041a.5.5,0,0,1-.459.311h-.043a.5.5,0,0,1-.455-.429l-1-7.16-1.3,5.474c0,.014-.007.028-.012.041a.5.5,0,0,1-.475.343h0l-.049,0a.5.5,0,0,1-.436-.385l-.87-3.774-1.712,6.171c0,.014-.008.027-.013.04a.5.5,0,0,1-.468.326h0l-.047,0a.5.5,0,0,1-.451-.455l-.775-9.045-.066-.774-2.038,5.681c-.007.018-.015.036-.023.054a.5.5,0,0,1-.369.271.518.518,0,0,1-.078.006h-4.119a55.785,55.785,0,0,0,5.936,6.187s1.7,1.708,2.211,2.145a2.759,2.759,0,0,0,4.24,0c.51-.438,2.211-2.145,2.211-2.145a55.192,55.192,0,0,0,5.978-6.241h-4.265Z" transform="translate(-515.087 -389.257)" fill="#fff"/>
        </g>
      </g>
    </g>
    <rect id="Rectangle_51" data-name="Rectangle 51" width="35" height="10" transform="translate(370.597 360.13)" fill="#1b5a5e"/>
  </g>
</svg>
