<svg xmlns="http://www.w3.org/2000/svg" width="10.705" height="24.226" viewBox="0 0 10.705 24.226">
  <g id="information-button" transform="translate(-8.259 -4.543)">
    <path id="Path_71" data-name="Path 71" d="M18.3,27.537q-1.524.6-2.431.915a6.412,6.412,0,0,1-2.108.316,4.2,4.2,0,0,1-2.868-.9,2.906,2.906,0,0,1-1.021-2.284,8.3,8.3,0,0,1,.075-1.1c.052-.374.134-.8.246-1.268l1.271-4.491c.112-.431.209-.84.286-1.221a5.415,5.415,0,0,0,.114-1.057,1.629,1.629,0,0,0-.354-1.2,2.012,2.012,0,0,0-1.358-.336,3.564,3.564,0,0,0-1.011.15c-.342.105-.64.2-.884.294l.336-1.383q1.248-.509,2.389-.87a7.058,7.058,0,0,1,2.155-.364,4.124,4.124,0,0,1,2.827.885,2.942,2.942,0,0,1,.992,2.3q0,.293-.068,1.031a6.9,6.9,0,0,1-.254,1.355l-1.265,4.477c-.1.359-.2.77-.279,1.23a6.5,6.5,0,0,0-.122,1.046,1.5,1.5,0,0,0,.4,1.216,2.235,2.235,0,0,0,1.382.324A4.008,4.008,0,0,0,17.8,26.44a5.946,5.946,0,0,0,.845-.284ZM18.079,9.364a3.018,3.018,0,0,1-2.13.822,3.05,3.05,0,0,1-2.138-.822,2.624,2.624,0,0,1-.89-1.993,2.65,2.65,0,0,1,.89-2,3.028,3.028,0,0,1,2.138-.83,2.994,2.994,0,0,1,2.13.83,2.691,2.691,0,0,1,0,3.991Z" transform="translate(0)" fill="#153b3d"/>
  </g>
</svg>
