<svg xmlns="http://www.w3.org/2000/svg" width="38.46" height="38.949" viewBox="0 0 38.46 38.949">
  <g id="medical" transform="translate(-22 -19)">
    <path id="Path_26" data-name="Path 26" d="M313.717,315.287h-2.568V312.74a.723.723,0,0,0-.719-.74h-2.3a.758.758,0,0,0-.76.74v2.547H304.76a.758.758,0,0,0-.76.74v2.3a.758.758,0,0,0,.76.74h2.609V321.7a.758.758,0,0,0,.76.74h2.3a.723.723,0,0,0,.719-.74v-2.629h2.568a.723.723,0,0,0,.719-.74v-2.3a.723.723,0,0,0-.719-.74Zm-.431,2.629h-2.527a.758.758,0,0,0-.76.74v2.629h-1.479v-2.629a.723.723,0,0,0-.719-.74h-2.65v-1.479h2.65a.723.723,0,0,0,.719-.74V313.15H310V315.7a.758.758,0,0,0,.76.74h2.527Z" transform="translate(-258.828 -268.924)" fill="#fff"/>
    <path id="Path_27" data-name="Path 27" d="M50.581,38.241A9.849,9.849,0,0,0,42.5,42.47q-.232-.071-.44-.139L41.5,40.747a6.42,6.42,0,0,0,2.327-4.289c1.16-.315,2.226-1.678,2.653-3.485a1.951,1.951,0,0,0-.839-2.264,1.435,1.435,0,0,0-.656-.159c.038-.284.077-.63.118-1.056.1-1,.156-2,.156-2.258,0-.181,0-.367.007-.564.03-1.573.068-3.532-1.667-5.287h0a8.287,8.287,0,0,0-11.909.286l-.135.152c-.872.975-2.067,2.31-1.982,5.729a22.148,22.148,0,0,0,.661,3.037,1.449,1.449,0,0,0-.552.17,1.933,1.933,0,0,0-.8,2.215c.427,1.81,1.5,3.175,2.659,3.486a6.591,6.591,0,0,0,2.307,4.251l-.736,1.515c-.526.165-1.119.328-1.73.5C27.425,43.833,22,45.351,22,50.281v5.155c0,1.218.651,2.512,1.821,2.512H50.632a9.854,9.854,0,1,0-.05-19.707ZM32.411,22.588l.139-.156a6.968,6.968,0,0,1,5.03-2.279,7.041,7.041,0,0,1,5.2,2.04c1.394,1.41,1.363,3.028,1.335,4.456,0,.2-.008.395-.008.587,0,.122-.012.375-.033.7a6.593,6.593,0,0,0-1.2-2.616l-.043-.085a.575.575,0,0,0-1.038.019c-.927,2.039-1.845,1.956-3.366,1.821-.177-.016-.356-.032-.539-.044a.784.784,0,0,0-.851.444c-.188.436.073.906.55,1.463-1.518-.181-1.9-1.292-2.25-2.294-.241-.7-.513-1.484-1.307-1.484a2.679,2.679,0,0,0-2.035.877,5.079,5.079,0,0,0-1.106,2.419,7.28,7.28,0,0,1-.164-.93C30.648,24.558,31.584,23.512,32.411,22.588Zm.226,13.34a.579.579,0,0,0-.575-.552h-.025C31.194,35.376,30.3,34,30,32.708c-.117-.5.037-.834.229-.938.218-.117.449.089.539.184A.73.73,0,0,0,31.83,31.3c-.061-.882,0-3.408,1.006-4.485a1.539,1.539,0,0,1,1.124-.509,4.084,4.084,0,0,1,.288.708c.426,1.232,1.22,3.523,4.736,3.022a.575.575,0,0,0,.308-.993,10.44,10.44,0,0,1-.793-.813c1.352.117,2.732.162,3.872-1.632A16.758,16.758,0,0,1,43.558,31.7a.575.575,0,0,0,.572.526l.05,0a.575.575,0,0,0,.48-.349c.114-.112.287-.233.452-.148.211.109.363.48.246.978-.306,1.294-1.2,2.668-2.038,2.668h-.014a.58.58,0,0,0-.316.088.573.573,0,0,0-.27.471,5.287,5.287,0,0,1-2.207,4.093l-.009.006a5.308,5.308,0,0,1-2.825.71,5.2,5.2,0,0,1-2.819-.726,5.437,5.437,0,0,1-2.223-4.09Zm1.4,7.022.8-1.639a6.652,6.652,0,0,0,2.845.583,6.8,6.8,0,0,0,2.809-.553l.577,1.638a.575.575,0,0,0,.357.353q.215.073.455.15a9.787,9.787,0,0,0-.695,1.655,4.6,4.6,0,0,1-6.833.15,4.3,4.3,0,0,1-1.066-1.911q.212-.065.414-.131a.575.575,0,0,0,.339-.3ZM23.15,55.436V50.281c0-4.058,4.739-5.384,8.539-6.449l.481-.134a5.767,5.767,0,0,0,8.617,3.3,9.856,9.856,0,0,0,5.178,9.8H23.821C23.454,56.8,23.15,56.066,23.15,55.436ZM50.581,56.8a8.7,8.7,0,1,1,8.7-8.7A8.7,8.7,0,0,1,50.581,56.8Z" transform="translate(0 0)" fill="#fff"/>
  </g>
</svg>
