<svg xmlns="http://www.w3.org/2000/svg" width="33.833" height="43.911" viewBox="0 0 33.833 43.911">
  <path id="lock" d="M31.3,19.565h-.846V10.782C30.449,5.94,25.9,2,20.3,2H13.533c-5.6,0-10.15,3.94-10.15,8.782v8.782H2.537A2.392,2.392,0,0,0,0,21.76V43.716a2.392,2.392,0,0,0,2.537,2.2H31.3a2.392,2.392,0,0,0,2.537-2.2V21.76A2.392,2.392,0,0,0,31.3,19.565ZM10.15,10.782a3.183,3.183,0,0,1,3.383-2.927H20.3a3.183,3.183,0,0,1,3.383,2.927v8.782H10.15Z" transform="translate(0 -2)" fill="#1b5a5e"/>
</svg>
