<svg xmlns="http://www.w3.org/2000/svg" width="124.44" height="124.44" viewBox="0 0 124.44 124.44">
  <g id="medical-record" transform="translate(-59.694)">
    <g id="Group_209" data-name="Group 209" transform="translate(115.957 6.633)">
      <g id="Group_208" data-name="Group 208">
        <path id="Path_82" data-name="Path 82" d="M238.64,25.961a5.957,5.957,0,1,0,5.957,5.957A5.964,5.964,0,0,0,238.64,25.961Zm0,8.082a2.125,2.125,0,1,1,2.125-2.125A2.127,2.127,0,0,1,238.64,34.043Z" transform="translate(-232.683 -25.961)" fill="#fff"/>
      </g>
    </g>
    <g id="Group_211" data-name="Group 211" transform="translate(97.914 19.854)">
      <g id="Group_210" data-name="Group 210">
        <path id="Path_83" data-name="Path 83" d="M181.273,81.926a1.916,1.916,0,0,0-1.916,1.916v3.2a1.916,1.916,0,1,0,3.832,0v-3.2A1.916,1.916,0,0,0,181.273,81.926Z" transform="translate(-179.357 -81.926)" fill="#fff"/>
      </g>
    </g>
    <g id="Group_213" data-name="Group 213" transform="translate(142.082 19.854)">
      <g id="Group_212" data-name="Group 212">
        <path id="Path_84" data-name="Path 84" d="M319.559,81.926a1.916,1.916,0,0,0-1.916,1.916v3.2a1.916,1.916,0,1,0,3.832,0v-3.2A1.916,1.916,0,0,0,319.559,81.926Z" transform="translate(-317.643 -81.926)" fill="#fff"/>
      </g>
    </g>
    <g id="Group_215" data-name="Group 215" transform="translate(115.638 22.688)">
      <g id="Group_214" data-name="Group 214">
        <path id="Path_85" data-name="Path 85" d="M243.331,94.043a1.916,1.916,0,0,0-2.7.181,3.977,3.977,0,0,1-5.834,0,1.916,1.916,0,0,0-2.885,2.522,7.807,7.807,0,0,0,11.6,0A1.916,1.916,0,0,0,243.331,94.043Z" transform="translate(-231.435 -93.569)" fill="#fff"/>
      </g>
    </g>
    <g id="Group_217" data-name="Group 217" transform="translate(98.877 73.16)">
      <g id="Group_216" data-name="Group 216">
        <path id="Path_86" data-name="Path 86" d="M209.987,301.476H167.745a1.916,1.916,0,0,0,0,3.832h42.242a1.916,1.916,0,0,0,0-3.832Z" transform="translate(-165.829 -301.476)" fill="#fff"/>
      </g>
    </g>
    <g id="Group_219" data-name="Group 219" transform="translate(98.877 84.146)">
      <g id="Group_218" data-name="Group 218">
        <path id="Path_87" data-name="Path 87" d="M209.987,346.748H167.745a1.916,1.916,0,1,0,0,3.832h42.242a1.916,1.916,0,1,0,0-3.832Z" transform="translate(-165.829 -346.748)" fill="#fff"/>
      </g>
    </g>
    <g id="Group_221" data-name="Group 221" transform="translate(98.877 95.132)">
      <g id="Group_220" data-name="Group 220">
        <path id="Path_88" data-name="Path 88" d="M209.987,392.021H167.745a1.916,1.916,0,1,0,0,3.832h42.242a1.916,1.916,0,1,0,0-3.832Z" transform="translate(-165.829 -392.021)" fill="#fff"/>
      </g>
    </g>
    <g id="Group_223" data-name="Group 223" transform="translate(109.16 42.047)">
      <g id="Group_222" data-name="Group 222">
        <path id="Path_89" data-name="Path 89" d="M229.671,181.969H224.79v-4.881a1.916,1.916,0,0,0-1.916-1.916h-8.082a1.916,1.916,0,0,0-1.916,1.916v4.881H208a1.916,1.916,0,0,0-1.916,1.916v8.082A1.916,1.916,0,0,0,208,193.883h4.881v4.881a1.916,1.916,0,0,0,1.916,1.916h8.082a1.916,1.916,0,0,0,1.916-1.916v-4.881h4.881a1.916,1.916,0,0,0,1.916-1.916v-8.082A1.916,1.916,0,0,0,229.671,181.969Zm-1.916,8.082h-4.881a1.916,1.916,0,0,0-1.916,1.916v4.881h-4.25v-4.881a1.916,1.916,0,0,0-1.916-1.916h-4.881V185.8h4.881a1.916,1.916,0,0,0,1.916-1.916V179h4.25v4.881a1.916,1.916,0,0,0,1.916,1.916h4.881Z" transform="translate(-206.079 -175.172)" fill="#fff"/>
      </g>
    </g>
    <g id="Group_225" data-name="Group 225" transform="translate(59.694)">
      <g id="Group_224" data-name="Group 224">
        <path id="Path_90" data-name="Path 90" d="M170.32,19.133H160.164V16.269c0-3.024-3.208-5.483-7.151-5.483H138.185C137.029,4.694,130.173,0,121.914,0S106.8,4.694,105.643,10.785H90.814c-3.943,0-7.151,2.46-7.151,5.483v2.865H73.508c-7.617,0-13.814,4.752-13.814,10.592v84.122c0,5.841,6.2,10.592,13.814,10.592H84.921a1.887,1.887,0,1,0,0-3.646H73.508c-5,0-9.06-3.116-9.06-6.947V29.726c0-3.83,4.064-6.947,9.06-6.947H83.664v4.726H73.508c-1.6,0-2.9,1-2.9,2.22v84.122c0,1.224,1.3,2.22,2.9,2.22H170.32c1.6,0,2.9-1,2.9-2.22V29.726c0-1.224-1.3-2.22-2.9-2.22H160.164V22.779H170.32c5,0,9.06,3.116,9.06,6.947v84.122c0,3.83-4.064,6.947-9.06,6.947H94.43a1.887,1.887,0,1,0,0,3.646h75.89c7.617,0,13.814-4.752,13.814-10.592V29.726C184.134,23.885,177.937,19.133,170.32,19.133Zm-1.859,12.018v81.271h-93.1V31.151h8.3v.39c0,3.024,3.208,5.483,7.151,5.483H136.9a2.156,2.156,0,0,0,2.377-1.823,2.156,2.156,0,0,0-2.377-1.823H90.814a2.176,2.176,0,0,1-2.4-1.838V16.269a2.176,2.176,0,0,1,2.4-1.838h17.035a2.156,2.156,0,0,0,2.377-1.823c0-4.942,5.243-8.962,11.687-8.962S133.6,7.666,133.6,12.608a2.156,2.156,0,0,0,2.377,1.823h17.035a2.176,2.176,0,0,1,2.4,1.838V31.541a2.176,2.176,0,0,1-2.4,1.838h-6.6a2.156,2.156,0,0,0-2.377,1.823,2.156,2.156,0,0,0,2.377,1.823h6.6c3.943,0,7.151-2.46,7.151-5.483v-.39Z" transform="translate(-59.694)" fill="#fff"/>
      </g>
    </g>
  </g>
</svg>
