<svg xmlns="http://www.w3.org/2000/svg" width="124.44" height="124.44" viewBox="0 0 124.44 124.44">
  <g id="tomography" transform="translate(0 -9.688)">
    <g id="Group_197" data-name="Group 197" transform="translate(0 9.688)">
      <path id="Path_75" data-name="Path 75" d="M404.156,169.51H379.842a4.908,4.908,0,0,0-4.9,4.9V192.65a4.912,4.912,0,0,0,4.9,4.909h2.869v27.8a3.085,3.085,0,0,0,3.081,3.081h12.422a3.085,3.085,0,0,0,3.081-3.081v-27.8h2.861a4.915,4.915,0,0,0,4.909-4.909V174.412a4.912,4.912,0,0,0-4.91-4.9Zm-17.711,35.842h11.108v4.057H386.445Zm11.115,19.359H386.445V213.144H397.56Zm0-23.094H386.445V197.56H397.56Zm7.771-8.967a1.19,1.19,0,0,1-1.175,1.175H379.842a1.172,1.172,0,0,1-1.167-1.175V174.412a1.183,1.183,0,0,1,1.167-1.167h24.314a1.187,1.187,0,0,1,1.175,1.167Z" transform="translate(-284.626 -128.602)" fill="#fff"/>
      <path id="Path_76" data-name="Path 76" d="M35.063,296.562H31.971a1.867,1.867,0,1,0,0,3.735h3.091a1.867,1.867,0,0,0,0-3.735Z" transform="translate(-22.609 -224.063)" fill="#fff"/>
      <path id="Path_77" data-name="Path 77" d="M35.063,266.458H31.971a1.867,1.867,0,1,0,0,3.735h3.091a1.867,1.867,0,1,0,0-3.735Z" transform="translate(-22.609 -201.567)" fill="#fff"/>
      <path id="Path_78" data-name="Path 78" d="M41.818,9.689H41.8a40.517,40.517,0,0,0-29.52,12.906A44.771,44.771,0,0,0,0,53.629v53.313a2.846,2.846,0,0,0,2.771,2.91H14.293a39.232,39.232,0,0,0-.635,5.216c0,.008,0,.016,0,.024v7.345a3.039,3.039,0,0,0,2.954,3.112h3.846v5.474a3.036,3.036,0,0,0,2.954,3.1H60.2a3.039,3.039,0,0,0,2.961-3.1v-5.474H67a3.042,3.042,0,0,0,2.961-3.112v-7.347c0-.007,0-.015,0-.022a39.243,39.243,0,0,0-.634-5.215H81.806a2.851,2.851,0,0,0,2.778-2.91V85.215a1.8,1.8,0,1,0-3.605,0v20.848H68.662C66.847,96.3,63.72,82.4,63.2,79.711V77.046a33.462,33.462,0,0,0-4.409-50.53l3.732-6.8A41.672,41.672,0,0,1,80.98,54.64V76.473a1.8,1.8,0,1,0,3.605,0V54.64A45.81,45.81,0,0,0,72.022,22.892a41.463,41.463,0,0,0-30.2-13.2Zm-1.812,3.835v7.693a29.515,29.515,0,0,0-12.054,3.4l-3.657-6.661a36.506,36.506,0,0,1,15.711-4.43Zm-25.042,92.54H3.605V53.629a40.683,40.683,0,0,1,17.57-33.777l3.658,6.662a33.468,33.468,0,0,0-4.408,50.534v2.665c-.522,2.69-3.648,16.594-5.461,26.349Zm44.6,24.276H24.065V125.55H59.559Zm6.709-17.165H45.161a1.9,1.9,0,0,0,0,3.789h21.2v4.8H17.265v-4.8h19.57a1.9,1.9,0,0,0,0-3.789H17.355c.062-.733,5.816-28.777,6.34-31.376H59.928C60.452,84.4,66.206,112.441,66.268,113.174ZM56.558,65.75h0a7.326,7.326,0,0,0-1.024-.072H28.094a7.333,7.333,0,0,0-1.022.072h-.007A20.3,20.3,0,0,1,23.091,53.63c0-10.848,8.4-19.674,18.718-19.674S60.527,42.782,60.527,53.63A20.3,20.3,0,0,1,56.558,65.75Zm3.036,7.987v4.271H24.03V73.737a4.176,4.176,0,0,1,4.064-4.269H55.53A4.176,4.176,0,0,1,59.594,73.737ZM69.1,53.629a29.455,29.455,0,0,1-6.143,18.112A8.1,8.1,0,0,0,60.016,67.2,24.272,24.272,0,0,0,64.132,53.63c0-12.937-10.014-23.463-22.323-23.463S19.485,40.693,19.485,53.63a24.263,24.263,0,0,0,4.122,13.575,8.106,8.106,0,0,0-2.945,4.538,29.442,29.442,0,0,1-6.143-18.114c0-15.812,12.24-28.68,27.287-28.681h0C56.86,24.95,69.1,37.817,69.1,53.629ZM55.671,24.616a29.525,29.525,0,0,0-12.06-3.4V13.523a37.422,37.422,0,0,1,15.77,4.337Z" transform="translate(0 -9.688)" fill="#fff"/>
    </g>
    <g id="Group_198" data-name="Group 198" transform="translate(102.418 106.108)">
      <path id="Path_79" data-name="Path 79" d="M428.513,394.95h-3.091a1.867,1.867,0,1,1,0-3.735h3.091a1.867,1.867,0,1,1,0,3.735Z" transform="translate(-423.554 -391.215)" fill="#fff"/>
    </g>
  </g>
</svg>
