<svg xmlns="http://www.w3.org/2000/svg" width="201.918" height="204.484" viewBox="0 0 201.918 204.484">
  <g id="medical" transform="translate(-22 -19)">
    <path id="Path_26" data-name="Path 26" d="M355.013,329.256H341.532V315.883A3.8,3.8,0,0,0,337.757,312H325.677a3.981,3.981,0,0,0-3.99,3.883v13.373h-13.7a3.981,3.981,0,0,0-3.99,3.883v12.079a3.981,3.981,0,0,0,3.99,3.883h13.7v13.8a3.98,3.98,0,0,0,3.99,3.883h12.079a3.8,3.8,0,0,0,3.775-3.883V349.1h13.481a3.8,3.8,0,0,0,3.775-3.883V333.139a3.8,3.8,0,0,0-3.775-3.883Zm-2.264,13.8H339.482a3.981,3.981,0,0,0-3.99,3.883v13.8h-7.765v-13.8a3.8,3.8,0,0,0-3.775-3.883H310.04V335.3h13.912a3.8,3.8,0,0,0,3.775-3.883V318.04h7.765v13.374a3.981,3.981,0,0,0,3.99,3.883h13.266Z" transform="translate(-160.345 -166.6)" fill="#fff"/>
    <path id="Path_27" data-name="Path 27" d="M172.054,120.016a51.71,51.71,0,0,0-42.45,22.2q-1.22-.375-2.308-.73l-2.931-8.313c9.059-6.787,11.541-17.385,12.218-22.519,6.092-1.653,11.687-8.811,13.929-18.3,1.208-5.131-.561-9.908-4.4-11.887a7.533,7.533,0,0,0-3.443-.835c.2-1.489.406-3.31.62-5.546.5-5.232.82-10.516.82-11.855,0-.949.019-1.928.039-2.963.16-8.261.359-18.541-8.753-27.758h0a43.509,43.509,0,0,0-62.524,1.5q-.349.4-.71.8C67.577,38.931,61.3,45.94,61.753,63.891c.043,1.757,1.726,9.81,3.468,15.947a7.606,7.606,0,0,0-2.9.895c-3.688,1.993-5.379,6.665-4.208,11.627,2.243,9.5,7.856,16.669,13.962,18.3.73,5.034,3.285,15.528,12.113,22.321l-3.867,7.952c-2.761.865-5.873,1.723-9.084,2.622C50.482,149.376,22,157.344,22,183.229v27.065c0,6.394,3.42,13.189,9.558,13.189H172.235c.028,0,.055,0,.083,0a51.732,51.732,0,1,0-.264-103.464Zm-95.4-82.177q.37-.413.73-.82A36.585,36.585,0,0,1,103.8,25.052a36.968,36.968,0,0,1,27.3,10.708c7.319,7.4,7.155,15.9,7.01,23.394-.021,1.066-.04,2.074-.04,3.081,0,.64-.065,1.968-.175,3.658-1.46-5.428-3.5-10.671-6.314-13.737l-.223-.447a3.02,3.02,0,0,0-5.45.1c-4.866,10.7-9.686,10.272-17.671,9.559-.927-.083-1.87-.167-2.829-.233-3.038-.216-4.138,1.56-4.469,2.33-.984,2.286.384,4.755,2.888,7.683C95.851,70.2,93.831,64.365,92.01,59.1c-1.264-3.651-2.7-7.788-6.859-7.788a14.066,14.066,0,0,0-10.685,4.6c-3.094,3.322-4.838,8.058-5.809,12.7a38.219,38.219,0,0,1-.863-4.881C67.4,48.183,72.318,42.687,76.658,37.839Zm1.185,70.035a3.04,3.04,0,0,0-3.02-2.9h-.132c-4.423,0-9.093-7.215-10.7-14.005-.615-2.606.192-4.38,1.2-4.926,1.142-.616,2.36.469,2.83.965a3.02,3.02,0,0,0,5.188-1.72,3.008,3.008,0,0,0,.392-1.709c-.321-4.632,0-17.891,5.28-23.547a8.082,8.082,0,0,1,5.9-2.67A21.444,21.444,0,0,1,86.3,61.081c2.238,6.466,6.4,18.5,24.864,15.865a3.02,3.02,0,0,0,1.617-5.213,54.807,54.807,0,0,1-4.163-4.267c7.1.616,14.341.849,20.327-8.569,3.782,7.094,5.752,21.2,6.234,26.8a3.02,3.02,0,0,0,3.006,2.761c.086,0,.173,0,.262-.012a3.017,3.017,0,0,0,2.521-1.831c.6-.589,1.506-1.225,2.373-.78,1.108.571,1.907,2.518,1.291,5.134-1.605,6.792-6.275,14.006-10.7,14.006h-.076a3.044,3.044,0,0,0-1.66.461,3.011,3.011,0,0,0-1.416,2.472c-.129,2.469-1.3,15.1-11.588,21.491l-.049.031c-4.006,2.472-9,3.725-14.833,3.725-5.82,0-10.8-1.282-14.8-3.812-10.143-6.4-11.5-19.01-11.669-21.472Zm7.347,36.867,4.185-8.6a34.926,34.926,0,0,0,14.938,3.06,35.721,35.721,0,0,0,14.745-2.9l3.031,8.6a3.02,3.02,0,0,0,1.874,1.855q1.129.385,2.389.786a51.386,51.386,0,0,0-3.649,8.69,24.17,24.17,0,0,1-35.875.787,22.586,22.586,0,0,1-5.6-10.03q1.111-.341,2.176-.685a3.02,3.02,0,0,0,1.781-1.551ZM28.04,210.294V183.229c0-21.306,24.881-28.264,44.83-33.855.844-.237,1.7-.47,2.525-.7a30.275,30.275,0,0,0,45.242,17.3,51.747,51.747,0,0,0,27.185,51.469H31.558C29.636,217.444,28.04,213.6,28.04,210.294Zm144.014,7.15a45.694,45.694,0,1,1,45.694-45.694A45.694,45.694,0,0,1,172.054,217.444Z" transform="translate(0 0)" fill="#fff"/>
  </g>
</svg>
