<svg viewBox="0 0 298.668 54.509">
                        <g id="Group_51" data-name="Group 51" transform="translate(-185.822 -326.311)">
                            <path id="Path_1" data-name="Path 1"
                                d="M234.366,338.152c-1.706-2.843-6.4-5.544-11.8-5.544-6.964,0-10.305,2.914-10.305,6.609,0,4.335,5.117,5.543,11.087,6.254,10.376,1.28,20.042,3.98,20.042,15.848,0,11.087-9.808,15.848-20.894,15.848-10.163,0-17.98-3.126-21.676-12.223l7.817-4.051c2.2,5.472,7.96,7.889,14,7.889,5.9,0,11.442-2.061,11.442-7.462,0-4.69-4.9-6.609-11.513-7.32-10.163-1.208-19.544-3.909-19.544-15.067,0-10.234,10.092-14.427,19.26-14.5,7.746,0,15.778,2.2,19.544,9.878Z"
                                transform="translate(-15 1.875)" fill="#fafafa" />
                            <path id="Path_2" data-name="Path 2"
                                d="M322.487,380.791c.568,4.335,4.335,7.463,10.447,7.463,3.2,0,7.391-1.208,9.381-3.27l5.543,5.472c-3.7,3.837-9.736,5.685-15.067,5.685-12.081,0-19.259-7.462-19.259-18.691,0-10.661,7.249-18.336,18.62-18.336,11.726,0,19.047,7.248,17.7,21.676Zm19.047-7.178c-.569-4.548-4.122-6.823-9.1-6.823-4.69,0-8.528,2.274-9.807,6.823Z"
                                transform="translate(-81.458 -17.098)" fill="#fafafa" />
                            <path id="Path_3" data-name="Path 3"
                                d="M417.734,328.289v19.473a12.938,12.938,0,0,1,10.945-5.26c9.95,0,14.356,6.751,14.356,17.057v18.478h-8.671V359.63c0-6.4-3.34-9.1-7.959-9.1-5.117,0-8.671,4.335-8.671,9.594v17.909h-8.67V328.289Z"
                                transform="translate(-136.831 1.006)" fill="#fafafa" />
                            <path id="Path_5" data-name="Path 5"
                                d="M623.759,395.755V376.992c0-4.62-2.417-8.812-7.178-8.812-4.691,0-7.463,4.193-7.463,8.812v18.762h-8.67V360.646h8.03l.64,4.265c1.848-3.554,5.9-4.833,9.24-4.833,4.193,0,8.386,1.706,10.376,6.539,3.127-4.975,7.178-6.4,11.726-6.4,9.95,0,14.853,6.112,14.853,16.631v18.9h-8.671v-18.9c0-4.62-1.918-8.528-6.609-8.528s-7.6,4.05-7.6,8.67v18.762Z"
                                transform="translate(-210.981 -16.286)" fill="#fafafa" />
                            <path id="Path_6" data-name="Path 6"
                                d="M749.73,380.791c.569,4.335,4.335,7.463,10.447,7.463,3.2,0,7.391-1.208,9.381-3.27l5.544,5.472c-3.7,3.837-9.737,5.685-15.067,5.685-12.082,0-19.26-7.462-19.26-18.691,0-10.661,7.248-18.336,18.62-18.336,11.727,0,19.046,7.248,17.7,21.676Zm19.047-7.178c-.568-4.548-4.121-6.823-9.1-6.823-4.69,0-8.528,2.274-9.808,6.823Z"
                                transform="translate(-292.762 -15.322)" fill="#fafafa" />
                            <g id="Group_256" data-name="Group 256" transform="translate(312.236 343.792)">
                                <g id="Group_255" data-name="Group 255" transform="translate(0 0)">
                                    <path id="Path_4" data-name="Path 4"
                                        d="M527.72,360.448h8.315v35.037h-8.173l-.427-5.117c-1.99,4.122-7.462,6.112-11.371,6.183-10.376.071-18.051-6.325-18.051-18.62,0-12.082,8.031-18.406,18.265-18.336,4.691,0,9.168,2.2,11.157,5.685Zm-21.037,17.483c0,6.68,4.62,10.66,10.377,10.66,13.645,0,13.645-21.249,0-21.249C511.3,367.342,506.683,371.251,506.683,377.931Z"
                                        transform="translate(-498.013 -359.595)" fill="#db2940" />
                                    <circle id="Ellipse_1" data-name="Ellipse 1" cx="12.441" cy="12.441" r="12.441"
                                        transform="translate(7.111 5.891)" fill="#db2940" />
                                </g>
                                <g id="Layer_2" data-name="Layer 2" transform="translate(6.418 9.64)">
                                    <g id="Group_1" data-name="Group 1">
                                        <path id="Path_7" data-name="Path 7"
                                            d="M520.609,385.9a.455.455,0,0,1,.881.115l.727,8.491,1.361-4.905a.455.455,0,0,1,.881.019l.758,3.288,1.294-5.436a.455.455,0,0,1,.893.042l.965,6.884.433-1.4a.456.456,0,0,1,.435-.321H534.1a8.388,8.388,0,0,0,1.391-3.175,7.032,7.032,0,0,0-1.078-5.585,6.944,6.944,0,0,0-5.1-2.513,6.257,6.257,0,0,0-.633-.033,7.429,7.429,0,0,0-4.6,1.656,7.423,7.423,0,0,0-4.6-1.656,6.284,6.284,0,0,0-.635.033,6.943,6.943,0,0,0-5.1,2.513,7.036,7.036,0,0,0-1.078,5.585,8.464,8.464,0,0,0,1.424,3.226h4.082Z"
                                            transform="translate(-512.511 -381.373)" fill="#fff" />
                                        <path id="Path_8" data-name="Path 8"
                                            d="M531.432,405.171c0,.012-.008.025-.014.037a.454.454,0,0,1-.418.283h-.039a.454.454,0,0,1-.414-.39l-.914-6.514-1.185,4.98c0,.013-.007.025-.011.038a.455.455,0,0,1-.432.312h0l-.045,0a.455.455,0,0,1-.4-.35l-.792-3.434-1.558,5.615c0,.012-.008.024-.012.036a.454.454,0,0,1-.426.3h0l-.043,0a.454.454,0,0,1-.411-.414l-.7-8.229-.06-.7L521.7,401.9a.52.52,0,0,1-.021.049.455.455,0,0,1-.336.247.467.467,0,0,1-.071.005h-3.747a50.755,50.755,0,0,0,5.4,5.629s1.548,1.554,2.012,1.952a2.51,2.51,0,0,0,3.857,0c.464-.4,2.012-1.952,2.012-1.952a50.222,50.222,0,0,0,5.439-5.679h-3.88Z"
                                            transform="translate(-515.307 -389.93)" fill="#fff" />
                                    </g>
                                </g>
                            </g>
                            <rect id="Rectangle_51" data-name="Rectangle 51" width="31.845" height="9.099"
                                transform="translate(353.94 357.081)" fill="#fafafa" />
                        </g>
                    </svg>