<svg id="prescription" xmlns="http://www.w3.org/2000/svg" width="124.44" height="124.44" viewBox="0 0 124.44 124.44">
  <g id="Group_24" data-name="Group 24" transform="translate(37.494 27.854)">
    <g id="Group_23" data-name="Group 23">
      <path id="Path_39" data-name="Path 39" d="M176.3,124.651h-6.673v-6.674a2.511,2.511,0,1,0-5.022,0v6.674h-6.674a2.511,2.511,0,1,0,0,5.022H164.6v6.674a2.511,2.511,0,1,0,5.022,0v-6.674H176.3a2.511,2.511,0,0,0,0-5.022Z" transform="translate(-155.418 -115.466)" fill="#153B3D"/>
    </g>
  </g>
  <g id="Group_26" data-name="Group 26" transform="translate(27.222 18.592)">
    <g id="Group_25" data-name="Group 25">
      <path id="Path_40" data-name="Path 40" d="M136.092,74.042a22.1,22.1,0,1,0,22.1,22.1A22.125,22.125,0,0,0,136.092,74.042Zm0,39.177a17.077,17.077,0,1,1,17.077-17.077A17.1,17.1,0,0,1,136.092,113.219Z" transform="translate(-113.992 -74.042)" fill="#153B3D"/>
    </g>
  </g>
  <g id="Group_28" data-name="Group 28" transform="translate(0 0)">
    <g id="Group_27" data-name="Group 27">
      <path id="Path_41" data-name="Path 41" d="M96.6,22.358,75.167.727a2.4,2.4,0,0,0-1.7-.712H7.226A7.267,7.267,0,0,0,0,7.307V117.164a7.267,7.267,0,0,0,7.226,7.291h46.01a2.43,2.43,0,0,0,0-4.861H7.226a2.422,2.422,0,0,1-2.409-2.43V7.307a2.422,2.422,0,0,1,2.409-2.43H71.055v14.34a7.267,7.267,0,0,0,7.226,7.291H92.492V69.769a2.409,2.409,0,1,0,4.817,0V24.077A2.439,2.439,0,0,0,96.6,22.358Zm-18.323-.712a2.422,2.422,0,0,1-2.409-2.43V8.313L89.086,21.646Z" transform="translate(0 -0.015)" fill="#153B3D"/>
    </g>
  </g>
  <g id="Group_30" data-name="Group 30" transform="translate(34.842 67.961)">
    <g id="Group_29" data-name="Group 29">
      <path id="Path_42" data-name="Path 42" d="M192.449,280H148.835a2.511,2.511,0,0,0,0,5.022h43.613a2.511,2.511,0,1,0,0-5.022Z" transform="translate(-146.324 -279.998)" fill="#153B3D"/>
    </g>
  </g>
  <g id="Group_32" data-name="Group 32" transform="translate(16.073 67.961)">
    <g id="Group_31" data-name="Group 31">
      <path id="Path_43" data-name="Path 43" d="M74.69,280H66.507a2.511,2.511,0,0,0,0,5.022H74.69a2.511,2.511,0,1,0,0-5.022Z" transform="translate(-63.996 -279.998)" fill="#153B3D"/>
    </g>
  </g>
  <g id="Group_34" data-name="Group 34" transform="translate(35.202 81.553)">
    <g id="Group_33" data-name="Group 33">
      <path id="Path_44" data-name="Path 44" d="M173.865,335.994h-25.03a2.511,2.511,0,0,0,0,5.022h25.03a2.511,2.511,0,1,0,0-5.022Z" transform="translate(-146.324 -335.994)" fill="#153B3D"/>
    </g>
  </g>
  <g id="Group_36" data-name="Group 36" transform="translate(16.073 81.553)">
    <g id="Group_35" data-name="Group 35">
      <path id="Path_45" data-name="Path 45" d="M74.69,335.994H66.507a2.511,2.511,0,1,0,0,5.022H74.69a2.511,2.511,0,1,0,0-5.022Z" transform="translate(-63.996 -335.994)" fill="#153B3D"/>
    </g>
  </g>
  <g id="Group_38" data-name="Group 38" transform="translate(35.514 95.145)">
    <g id="Group_37" data-name="Group 37">
      <path id="Path_46" data-name="Path 46" d="M150.607,392.727a2.509,2.509,0,1,0,.736,1.776A2.525,2.525,0,0,0,150.607,392.727Z" transform="translate(-146.32 -391.991)" fill="#153B3D"/>
    </g>
  </g>
  <g id="Group_40" data-name="Group 40" transform="translate(16.073 95.145)">
    <g id="Group_39" data-name="Group 39">
      <path id="Path_47" data-name="Path 47" d="M74.69,391.991H66.507a2.511,2.511,0,0,0,0,5.022H74.69a2.511,2.511,0,1,0,0-5.022Z" transform="translate(-63.996 -391.991)" fill="#153B3D"/>
    </g>
  </g>
  <g id="Group_42" data-name="Group 42" transform="translate(56.329 73.41)">
    <g id="Group_41" data-name="Group 41">
      <path id="Path_48" data-name="Path 48" d="M293.342,328.689a15.59,15.59,0,0,0-2.171.155,15.568,15.568,0,0,0-25.92-15.482L245.362,333.25a15.57,15.57,0,0,0,22.02,22.02l10.406-10.406a15.569,15.569,0,1,0,15.555-16.175ZM263.83,351.718A10.547,10.547,0,1,1,248.914,336.8l8.169-8.169L272,343.55ZM275.55,340l-14.916-14.916,8.169-8.168a10.547,10.547,0,0,1,14.916,14.916ZM290.831,354.5a10.546,10.546,0,0,1,0-20.487Zm5.022,0V334.016a10.546,10.546,0,0,1,0,20.487Z" transform="translate(-240.802 -308.801)" fill="#153B3D"/>
    </g>
  </g>
</svg>
