<svg xmlns="http://www.w3.org/2000/svg" width="67" height="67" viewBox="0 0 67 67">
  <g id="Group_245" data-name="Group 245" transform="translate(2295 -14421)">
    <g id="Group_242" data-name="Group 242" transform="translate(-2295 14421)">
      <path id="icons8-key" d="M19.814,0a9.686,9.686,0,0,0-9.357,12.288L.341,22.4A1.166,1.166,0,0,0,0,23.228v5.133a1.165,1.165,0,0,0,1.166,1.166H6.6A1.165,1.165,0,0,0,7.77,28.361V26.419h2.72a1.165,1.165,0,0,0,1.166-1.166v-2.72h2.72a1.165,1.165,0,0,0,1.166-1.166V18.425A9.709,9.709,0,1,0,19.814,0ZM20.98,10.878a2.331,2.331,0,1,1,2.331-2.331A2.331,2.331,0,0,1,20.98,10.878Z" transform="translate(17.548 19.926)" fill="#707070"/>
      <g id="Ellipse_27" data-name="Ellipse 27" fill="none" stroke="#ae1424" stroke-width="5">
        <circle cx="33.5" cy="33.5" r="33.5" stroke="none"/>
        <circle cx="33.5" cy="33.5" r="31" fill="none"/>
      </g>
      <line id="Line_8" data-name="Line 8" x2="14.676" y2="12.762" transform="translate(9.89 16.271)" fill="none" stroke="#ae1424" stroke-width="5"/>
      <line id="Line_9" data-name="Line 9" x2="16.59" y2="14.038" transform="translate(39.243 42.433)" fill="none" stroke="#ae1424" stroke-width="5"/>
    </g>
  </g>
</svg>
