<svg id="Group_196" data-name="Group 196" xmlns="http://www.w3.org/2000/svg" width="124.438" height="124.438" viewBox="0 0 124.438 124.438">
  <path id="Path_72" data-name="Path 72" d="M24.084,79.033c-1.2-8.3-2.124-16.646-3.191-24.968-.279-2.178-.249-4.073,2.073-5.3a2.482,2.482,0,0,0,.976-2.222,3.133,3.133,0,0,0-2.222-1.4c-.673-.085-1.447.618-2.173.973a9.663,9.663,0,0,1-2.5,1.16c-2.423.357-2.811,1.334-1.679,3.554a20.629,20.629,0,0,1,2.11,5.929c.834,5.16,1.577,10.354,1.944,15.565.363,5.177,2.721,19.246-.377,24.692-.5.646.363,1.659.885,2.251a1.841,1.841,0,0,0,1.817.153c1.258-1.244,2.5-2.12,4.33-1.3.147.065.376-.051.647-.1,1.566-.548,1.1-1.637.7-2.8C26.614,92.926,24.43,81.41,24.084,79.033Z" transform="translate(5.557 16.994)" fill="#fff"/>
  <path id="Path_73" data-name="Path 73" d="M77,47.278a9.514,9.514,0,0,1-2.5-1.162c-.727-.352-1.5-1.057-2.173-.97a3.1,3.1,0,0,0-2.22,1.4,2.479,2.479,0,0,0,.976,2.223c2.322,1.228,2.352,3.123,2.073,5.3-1.068,8.322-1.989,16.667-3.192,24.97-.344,2.377-2.809,13.893-3.615,16.193-.407,1.163-.871,2.252.7,2.8.271.045.5.164.65.1,1.836-.823,3.071.052,4.33,1.3a1.846,1.846,0,0,0,1.818-.153c.522-.592,1.388-1.606.885-2.251-3.1-5.444-.461-19.515-.1-24.692.366-5.21,1.111-10.4,1.944-15.564a20.681,20.681,0,0,1,2.109-5.929C79.81,48.611,79.425,47.633,77,47.278Z" transform="translate(24.832 16.994)" fill="#fff"/>
  <path id="Path_74" data-name="Path 74" d="M118.932,0H5.506A5.512,5.512,0,0,0,0,5.506V118.932a5.512,5.512,0,0,0,5.506,5.506H118.932a5.512,5.512,0,0,0,5.506-5.506V5.506A5.512,5.512,0,0,0,118.932,0ZM67.216,59.656a23.329,23.329,0,0,0,8.046,4.7A25.7,25.7,0,0,0,81.1,65.732c1.649,2.116,2.293,4.131,1.619,5.242-.537.881-2.04,1.315-4.033,1.166a19.322,19.322,0,0,1-8.1-2.88,21.552,21.552,0,0,1-4.9-4.04A8.94,8.94,0,0,0,67.216,59.656ZM70.19,29.882a19.349,19.349,0,0,0,8.991,3.309c.138.246.256.456.346.61a1.359,1.359,0,0,0,1.149.681h.032a1.37,1.37,0,0,0,1.148-.628l.471-.736a10.008,10.008,0,0,0,1.159-.249c3.966,2.35,5.568,5.118,5.06,6.534-.348.97-1.737,1.7-3.717,1.95a19.3,19.3,0,0,1-8.516-1.195c-6.063-2.175-9.732-6.205-8.964-8.357A3.986,3.986,0,0,1,70.19,29.882Zm-1.251-6.351c.328-.914,1.871-1.5,3.931-1.5a12.949,12.949,0,0,1,1.732.136,38.46,38.46,0,0,0,3.049,8.108,17.038,17.038,0,0,1-2.132-.6,14.157,14.157,0,0,1-5.383-3.3C69.132,25.307,68.682,24.244,68.939,23.531ZM88.708,49.744c-.348.97-1.737,1.7-3.717,1.95A19.294,19.294,0,0,1,76.475,50.5c-6.063-2.175-9.732-6.207-8.964-8.357a2.764,2.764,0,0,1,1.743-1.522,25.666,25.666,0,0,0,5.839,2.933,24.38,24.38,0,0,0,8.09,1.506,16.607,16.607,0,0,0,2.094-.128c.23-.029.442-.076.661-.114C88.053,46.579,89.153,48.506,88.708,49.744Zm0,10.468c-.347.97-1.737,1.7-3.717,1.95a19.294,19.294,0,0,1-8.516-1.195c-6.063-2.175-9.732-6.205-8.964-8.357a3.043,3.043,0,0,1,2.028-1.573A25.867,25.867,0,0,0,75.26,53.89a24.368,24.368,0,0,0,8.09,1.506,16.655,16.655,0,0,0,2.094-.128c.139-.018.259-.047.394-.067C88.007,56.981,89.164,58.943,88.708,60.212Zm-18.8,54.516c.975-.889,1.664-2.388,2.976-2.575s1.264.663,2.757,1.52a25.485,25.485,0,0,1-4.023,2.354C71.253,116.155,70.492,115.19,69.911,114.728Zm2.57-6.269c-4.624,5.575-16.115,2.929-18.623-.641-1.924-2.362-1.728-5.174.37-6.726,1.516-1.122,2.834-1.376,4.085.63a22.726,22.726,0,0,0,3.982,4.618,2.575,2.575,0,0,0,2.511.022c1.451-1.259,2.548-2.914,3.922-4.273.747-.736,2.07-1.86,2.622-1.623,1.166.5,2.779,1.773,2.792,2.747C74.167,105,73.7,107.471,72.481,108.459Zm-18.488,3.707c1.057-.007,2.307,1.279,3.981,2.293-1.123.86-1.869,1.711-2.131,1.582a26.919,26.919,0,0,1-3.328-2.208C53.02,113.245,52.936,112.175,53.993,112.166Zm5.225,5.528a7.236,7.236,0,0,1,8.591-.047,10.884,10.884,0,0,0,2.731,1.286H56.6A10.213,10.213,0,0,0,59.218,117.694Zm14.625,1.237c1.751-.63,3.1-2.363,3.952-5.133.494-1.616.666-5.854,3.2-6.847,3.766-3.249,9.379-7.838,8.132-12.419a28.466,28.466,0,0,0-2.315-5.619c-3.573-5.481-9.678-6.315-14.494-2.14a56.982,56.982,0,0,0-4.957,4.9c-2.772,3.078-4.826,3.094-7.59.043a56.289,56.289,0,0,0-4.951-4.892c-5.015-4.317-11.4-3.192-14.928,2.542-2.825,4.589-2.354,8.149,1.334,12.194a27.925,27.925,0,0,1,2.753,4.406,11.677,11.677,0,0,1,5.32,7.74c.73,2.82,2.11,4.586,3.92,5.227H5.506V5.506H59.811a1.627,1.627,0,0,0-.79,1.376,1.648,1.648,0,0,0,.947,1.489c.3.366,5.469.107,5.469.107a.192.192,0,0,1,.191.19V9.691a.191.191,0,0,1-.191.19h-4.2a1.653,1.653,0,0,0,0,3.306h3.093c0,.011,0,.022,0,.033v1.09h-2.4a1.649,1.649,0,0,0-1.553,1.1,3.722,3.722,0,0,0-2.43,3.487v1.232a9.514,9.514,0,0,0-3.94-.75,16.259,16.259,0,0,0-3.283.366,5.743,5.743,0,0,0-.42-2.578c-2.04-4.419-10.642-6.518-11.616-6.743-.055-.012-.117-.022-.173-.029,0,0-.3-.029-.769-.029-1.488,0-4.2.3-5.594,2.31-1.009,1.451-1.078,3.39-.2,5.765a1.4,1.4,0,0,0,.143.274,3.048,3.048,0,0,0-.635-.308c-.646-.213-1.539.325-2.324.53a9.6,9.6,0,0,1-2.679.652c-2.443-.123-3.013.763-2.336,3.159a20.551,20.551,0,0,1,.917,6.226c-.184,5.224-.464,10.463-1.119,15.644-.651,5.149-.363,10.131-4.46,14.869-.619.535.032,1.7.431,2.38a1.846,1.846,0,0,0,1.752.5c1.476-.976,2.858-1.594,4.5-.429.132.094.379.025.654.032,1.642-.233,1.4-1.393,1.228-2.611a38.551,38.551,0,0,1-.833-7.254c.435-8.377,1.153-16.742,1.725-25.113.147-2.191.548-4.044,3.064-4.8a2.486,2.486,0,0,0,1.39-1.99c0-.018-.015-.037-.021-.056l3.642,4.1,2.686,4.193a3.955,3.955,0,0,0,.213,1.564,3.773,3.773,0,0,0,.307.648c-4.336,3.009-6.386,6.81-5.251,9.969a5.663,5.663,0,0,0,2.238,2.786c-2.35,2.5-3.246,5.2-2.4,7.551A5.719,5.719,0,0,0,37.2,53.866c-2.341,2.493-3.258,5.217-2.417,7.562s3.2,3.871,6.655,4.308l.044.006c-1.4,2.637-1.571,5.167-.394,7.1,1.159,1.906,3.389,2.926,6.337,2.926q.51,0,1.046-.041a22.636,22.636,0,0,0,9.7-3.393c.771-.468,1.495-.976,2.193-1.5.022,0,.041.008.065.008h6.028c.029,0,.055.006.085.008.274.205.545.414.833.611a1.012,1.012,0,0,1,.074.373v.753a.993.993,0,0,1-.992.991H60.429a1.94,1.94,0,0,0,.351,3.8H66.1a.684.684,0,0,1,.681.684v.665a.684.684,0,0,1-.681.683H60.78a1.942,1.942,0,0,0,.563,3.745h4.2a.192.192,0,0,1,.191.19v.524a.192.192,0,0,1-.191.191H61.338a1.653,1.653,0,0,0,0,3.306h3.094c0,.011,0,.022,0,.032v1.09h-2.4a1.652,1.652,0,1,0,0,3.3h2.815A2.893,2.893,0,0,0,67.734,88.9V87.394a1.649,1.649,0,0,0-.16-.7,3.48,3.48,0,0,0,1.462-2.833v-.524a3.45,3.45,0,0,0-.381-1.557,3.981,3.981,0,0,0,1.438-3.063v-.665a3.958,3.958,0,0,0-.742-2.307,4.3,4.3,0,0,0,1.32-2.34,21.352,21.352,0,0,0,7.74,2.318c.358.028.708.04,1.046.04,2.953,0,5.181-1.021,6.337-2.926,1.176-1.934,1-4.461-.394-7.1.017,0,.029,0,.044,0,3.452-.438,5.817-1.97,6.655-4.31s-.076-5.071-2.416-7.562A5.723,5.723,0,0,0,92.1,50.955c.841-2.35-.054-5.056-2.4-7.551a5.665,5.665,0,0,0,2.238-2.786c1.133-3.159-.917-6.96-5.251-9.969A3.778,3.778,0,0,0,86.993,30a4.5,4.5,0,0,0-.362-3.6l1.379-2.154,3.137-3.525a2.7,2.7,0,0,0,1.315,1.476c2.516.753,2.915,2.606,3.065,4.8.57,8.372,1.291,16.735,1.726,25.113a38.678,38.678,0,0,1-.833,7.254c-.172,1.22-.417,2.379,1.226,2.61.274-.008.523.063.655-.03,1.641-1.165,3.024-.546,4.5.429a1.841,1.841,0,0,0,1.751-.5c.4-.683,1.05-1.845.431-2.38-4.1-4.738-3.812-9.721-4.46-14.869-.657-5.181-.936-10.42-1.118-15.644a20.59,20.59,0,0,1,.914-6.226c.679-2.4.109-3.282-2.333-3.159a9.561,9.561,0,0,1-2.68-.652c-.75-.2-1.6-.692-2.237-.545.858-2.351.785-4.274-.217-5.714-1.4-2.01-4.1-2.31-5.591-2.31-.474,0-.771.029-.771.029a1.381,1.381,0,0,0-.173.029c-.976.226-9.576,2.325-11.616,6.743a5.449,5.449,0,0,0-.424,2.282c-.476-.044-.946-.069-1.4-.069a9.331,9.331,0,0,0-4.135.831V18.9a3.711,3.711,0,0,0-1.405-2.911,2.837,2.837,0,0,0,.3-1.261V13.22a1.642,1.642,0,0,0-.158-.7,3.485,3.485,0,0,0,1.462-2.831V9.166c0-.48.149-2.834-1.767-3.659h51.767l0,113.426ZM52.252,32.158a18.644,18.644,0,0,0,4.438-2.274,3.973,3.973,0,0,1,2.84,1.923c.771,2.15-2.9,6.182-8.964,8.357a19.286,19.286,0,0,1-8.515,1.195c-1.979-.251-3.368-.98-3.717-1.95-.482-1.339.928-3.883,4.43-6.142l.38.595a1.363,1.363,0,0,0,1.148.628h.032a1.364,1.364,0,0,0,1.149-.681c.084-.145.191-.336.315-.559.172.007.343.018.519.018A17.98,17.98,0,0,0,52.252,32.158ZM47.2,30.572a40.714,40.714,0,0,0,3.109-8.018,14.389,14.389,0,0,1,3.7-.527c2.061,0,3.6.591,3.931,1.5.256.713-.193,1.776-1.2,2.841a14.163,14.163,0,0,1-5.383,3.3A15.9,15.9,0,0,1,47.2,30.572ZM40.936,44.817c.22.039.432.085.662.114a16.623,16.623,0,0,0,2.094.128,24.374,24.374,0,0,0,8.09-1.506,25.677,25.677,0,0,0,5.84-2.933,2.776,2.776,0,0,1,1.741,1.522c.771,2.151-2.9,6.182-8.964,8.357a19.306,19.306,0,0,1-8.515,1.195c-1.979-.251-3.368-.98-3.717-1.95C37.724,48.506,38.827,46.579,40.936,44.817Zm.1,10.383c.134.021.257.051.394.067a16.623,16.623,0,0,0,2.094.128,24.388,24.388,0,0,0,8.091-1.506,25.754,25.754,0,0,0,5.718-2.852,3.04,3.04,0,0,1,2.028,1.573c.771,2.151-2.9,6.182-8.964,8.357a19.306,19.306,0,0,1-8.515,1.195c-1.979-.251-3.37-.98-3.717-1.95C37.713,58.943,38.871,56.981,41.039,55.2Zm4.742,10.532a25.707,25.707,0,0,0,5.838-1.372,23.339,23.339,0,0,0,8.044-4.7A8.953,8.953,0,0,0,61.2,65.22a21.519,21.519,0,0,1-4.9,4.04,19.328,19.328,0,0,1-8.1,2.88c-1.99.149-3.5-.285-4.033-1.166C43.488,69.863,44.13,67.847,45.781,65.732Z" fill="#fff"/>
</svg>
